# Blender 3.5.0
# www.blender.org
mtllib bore.mtl
o FRAME
v -9.000000 0.250000 1.100000
v -9.000000 0.350000 1.200000
v -9.000000 0.250000 -1.100000
v -9.000000 0.350000 -1.200000
v 9.000000 0.250000 1.100000
v 9.000000 0.350000 1.200000
v 9.000000 0.250000 -1.100000
v 9.000000 0.350000 -1.200000
v -9.000000 0.150000 -0.500000
v 9.000000 0.150000 -0.500000
v -9.000000 0.150000 0.500000
v 9.000000 0.150000 0.500000
v 9.000000 0.250000 -0.500000
v 9.000000 0.250000 0.500000
v -9.000000 0.250000 0.500000
v -9.000000 0.250000 -0.500000
v 9.000000 0.350000 -0.500000
v 9.000000 0.350000 0.500000
v -9.000000 0.350000 0.500000
v -9.000000 0.350000 -0.500000
v -3.000000 0.350000 -1.200000
v 3.000000 0.350000 -1.200000
v 3.000000 0.350000 1.200000
v -3.000000 0.350000 1.200000
v -3.000000 0.350000 -0.496063
v 3.000000 0.350000 -0.496063
v -3.000000 0.350000 0.502006
v 3.000000 0.350000 0.502006
vn -1.0000 -0.0000 -0.0000
vn -0.0000 -0.7071 -0.7071
vn -0.0000 -0.7071 0.7071
vn -0.0000 -0.9864 0.1644
vn -0.0000 -0.9864 -0.1644
vn -0.0000 -0.0000 -1.0000
vn -0.0000 -1.0000 -0.0000
vn -0.0000 -0.0000 1.0000
vn 1.0000 -0.0000 -0.0000
vn -0.0000 1.0000 -0.0000
vt 0.216461 0.669559
vt 0.221133 0.671022
vt 0.218396 0.671022
vt 0.169219 0.671022
vt 0.173891 0.669559
vt 0.171955 0.671022
vt 0.221133 0.758774
vt 0.216461 0.760237
vt 0.218396 0.758774
vt 0.169219 0.758774
vt 0.173891 0.760237
vt 0.171955 0.758774
vt 0.619736 0.783273
vt 0.185501 0.668097
vt 0.157449 0.671022
vt 0.185501 0.761699
vt 0.157449 0.758774
vt 0.619736 0.936557
vt 0.232903 0.671022
vt 0.204851 0.668097
vt 0.625000 0.783273
vt 0.625000 0.629990
vt 0.204851 0.761699
vt 0.232903 0.758774
vt 0.185501 0.581807
vt 0.612919 0.936557
vt 0.185501 0.760237
vt 0.204851 0.581807
vt 0.618182 0.629990
vt 0.204851 0.760237
vt 0.618182 0.783273
vt 0.204851 0.669559
vt 0.185501 0.669559
vt 0.612919 0.783273
vt 0.185501 0.758774
vt 0.204851 0.758774
vt 0.204851 0.671022
vt 0.185501 0.671022
vt 0.171955 0.700273
vt 0.171956 0.729523
vt 0.218396 0.729523
vt 0.218396 0.700273
vt 0.185577 0.700273
vt 0.185577 0.729523
vt 0.204890 0.700273
vt 0.204890 0.729523
s 0
usemtl EngineMaterial
f 1/1/1 19/37/1 15/32/1
f 21/39/2 22/40/2 7/10/2
f 3/5/1 20/38/1 4/6/1
f 23/41/3 24/42/3 1/2/3
f 12/24/4 1/2/4 11/19/4
f 7/10/5 9/15/5 3/4/5
f 11/21/6 14/29/6 12/22/6
f 15/32/7 13/25/7 14/28/7
f 10/18/8 16/34/8 9/13/8
f 15/32/1 20/38/1 16/33/1
f 17/35/9 7/11/9 8/12/9
f 5/8/9 18/36/9 6/9/9
f 13/27/9 18/36/9 14/30/9
f 28/46/10 6/9/10 18/36/10
f 15/32/1 11/20/1 1/1/1
f 16/33/1 3/5/1 9/14/1
f 7/11/9 13/27/9 10/16/9
f 14/30/9 5/8/9 12/23/9
f 22/40/10 17/35/10 8/12/10
f 26/44/10 18/36/10 17/35/10
f 20/38/10 21/39/10 4/6/10
f 25/43/10 22/40/10 21/39/10
f 19/37/10 25/43/10 20/38/10
f 27/45/10 26/44/10 25/43/10
f 2/3/10 27/45/10 19/37/10
f 24/42/10 28/46/10 27/45/10
f 1/1/1 2/3/1 19/37/1
f 7/10/2 3/4/2 4/6/2
f 7/10/2 4/6/2 21/39/2
f 22/40/2 8/12/2 7/10/2
f 3/5/1 16/33/1 20/38/1
f 1/2/3 5/7/3 6/9/3
f 1/2/3 6/9/3 23/41/3
f 24/42/3 2/3/3 1/2/3
f 12/24/4 5/7/4 1/2/4
f 7/10/5 10/17/5 9/15/5
f 11/21/6 15/31/6 14/29/6
f 15/32/7 16/33/7 13/25/7
f 10/18/8 13/26/8 16/34/8
f 15/32/1 19/37/1 20/38/1
f 17/35/9 13/27/9 7/11/9
f 5/8/9 14/30/9 18/36/9
f 13/27/9 17/35/9 18/36/9
f 28/46/10 23/41/10 6/9/10
f 22/40/10 26/44/10 17/35/10
f 26/44/10 28/46/10 18/36/10
f 20/38/10 25/43/10 21/39/10
f 25/43/10 26/44/10 22/40/10
f 19/37/10 27/45/10 25/43/10
f 27/45/10 28/46/10 26/44/10
f 2/3/10 24/42/10 27/45/10
f 24/42/10 23/41/10 28/46/10
o SHELL
v -9.000000 1.543205 -0.000000
v 9.000000 1.543204 -0.000000
v -9.000000 1.520086 -0.234733
v 9.000000 1.520085 -0.234734
v -9.000000 1.451617 -0.460446
v 9.000000 1.451616 -0.460447
v -9.000000 1.340429 -0.668464
v 9.000000 1.340428 -0.668465
v -9.000000 1.190795 -0.850794
v 9.000000 1.190794 -0.850795
v -9.000000 1.008465 -1.000428
v 9.000000 1.008464 -1.000429
v -9.000000 0.800447 -1.111616
v 9.000000 0.800446 -1.111617
v -9.000000 0.574734 -1.180085
v 9.000000 0.574733 -1.180086
v -9.000000 0.340000 -1.203205
v 9.000000 0.340000 -1.203205
v -9.000000 0.340000 1.203205
v 9.000000 0.340000 1.203205
v -9.000000 0.574734 1.180086
v 9.000000 0.574733 1.180085
v -9.000000 0.800447 1.111617
v 9.000000 0.800446 1.111616
v -9.000000 1.008465 1.000429
v 9.000000 1.008464 1.000428
v -9.000000 1.190795 0.850795
v 9.000000 1.190794 0.850794
v -9.000000 1.340429 0.668465
v 9.000000 1.340428 0.668464
v -9.000000 1.451617 0.460447
v 9.000000 1.451616 0.460446
v -9.000000 1.520086 0.234734
v 9.000000 1.520085 0.234733
vn -0.0000 0.9952 -0.0980
vn -0.0000 0.9569 -0.2903
vn -0.0000 0.8819 -0.4714
vn -0.0000 0.7730 -0.6344
vn -0.0000 0.6344 -0.7730
vn -0.0000 0.4714 -0.8819
vn -0.0000 0.2903 -0.9569
vn -0.0000 0.0980 -0.9952
vn -1.0000 -0.0000 -0.0000
vn 1.0000 -0.0000 -0.0000
vn -0.0000 0.0980 0.9952
vn -0.0000 0.2903 0.9569
vn -0.0000 0.4714 0.8819
vn -0.0000 0.6344 0.7730
vn -0.0000 0.7730 0.6344
vn -0.0000 0.8819 0.4714
vn -0.0000 0.9569 0.2903
vn -0.0000 0.9952 0.0980
vt 1.000000 0.500000
vt 0.000000 0.500000
vt 1.000000 1.000000
vt 0.000000 1.000000
vt 0.968750 0.500000
vt 0.968750 1.000000
vt 0.937500 0.500000
vt 0.937500 1.000000
vt 0.906250 0.500000
vt 0.906250 1.000000
vt 0.875000 0.500000
vt 0.875000 1.000000
vt 0.843750 0.500000
vt 0.843750 1.000000
vt 0.812500 0.500000
vt 0.812500 1.000000
vt 0.781250 0.500000
vt 0.781250 1.000000
vt 0.750000 0.500000
vt 0.750000 1.000000
vt 0.250000 0.500000
vt 0.250000 1.000000
vt 0.218750 0.500000
vt 0.218750 1.000000
vt 0.187500 0.500000
vt 0.187500 1.000000
vt 0.156250 0.500000
vt 0.156250 1.000000
vt 0.125000 0.500000
vt 0.125000 1.000000
vt 0.093750 0.500000
vt 0.093750 1.000000
vt 0.062500 0.500000
vt 0.062500 1.000000
vt 0.031250 0.500000
vt 0.031250 1.000000
s 0
f 30/49/11 31/51/11 29/47/11
f 32/52/12 33/53/12 31/51/12
f 34/54/13 35/55/13 33/53/13
f 36/56/14 37/57/14 35/55/14
f 38/58/15 39/59/15 37/57/15
f 40/60/16 41/61/16 39/59/16
f 42/62/17 43/63/17 41/61/17
f 44/64/18 45/65/18 43/63/18
f 31/51/19 47/67/19 55/75/19
f 30/50/20 48/68/20 40/60/20
f 48/68/21 49/69/21 47/67/21
f 50/70/22 51/71/22 49/69/22
f 52/72/23 53/73/23 51/71/23
f 54/74/24 55/75/24 53/73/24
f 56/76/25 57/77/25 55/75/25
f 58/78/26 59/79/26 57/77/26
f 60/80/27 61/81/27 59/79/27
f 62/82/28 29/48/28 61/81/28
f 30/49/11 32/52/11 31/51/11
f 32/52/12 34/54/12 33/53/12
f 34/54/13 36/56/13 35/55/13
f 36/56/14 38/58/14 37/57/14
f 38/58/15 40/60/15 39/59/15
f 40/60/16 42/62/16 41/61/16
f 42/62/17 44/64/17 43/63/17
f 44/64/18 46/66/18 45/65/18
f 61/81/19 29/48/19 31/51/19
f 31/51/19 33/53/19 35/55/19
f 35/55/19 37/57/19 39/59/19
f 39/59/19 41/61/19 43/63/19
f 43/63/19 45/65/19 47/67/19
f 47/67/19 49/69/19 51/71/19
f 51/71/19 53/73/19 55/75/19
f 55/75/19 57/77/19 59/79/19
f 59/79/19 61/81/19 31/51/19
f 31/51/19 35/55/19 39/59/19
f 39/59/19 43/63/19 47/67/19
f 47/67/19 51/71/19 55/75/19
f 55/75/19 59/79/19 31/51/19
f 31/51/19 39/59/19 47/67/19
f 34/54/20 32/52/20 30/50/20
f 30/50/20 62/82/20 60/80/20
f 60/80/20 58/78/20 56/76/20
f 56/76/20 54/74/20 52/72/20
f 52/72/20 50/70/20 48/68/20
f 48/68/20 46/66/20 44/64/20
f 44/64/20 42/62/20 40/60/20
f 40/60/20 38/58/20 36/56/20
f 36/56/20 34/54/20 30/50/20
f 30/50/20 60/80/20 56/76/20
f 56/76/20 52/72/20 48/68/20
f 48/68/20 44/64/20 40/60/20
f 40/60/20 36/56/20 30/50/20
f 30/50/20 56/76/20 48/68/20
f 48/68/21 50/70/21 49/69/21
f 50/70/22 52/72/22 51/71/22
f 52/72/23 54/74/23 53/73/23
f 54/74/24 56/76/24 55/75/24
f 56/76/25 58/78/25 57/77/25
f 58/78/26 60/80/26 59/79/26
f 60/80/27 62/82/27 61/81/27
f 62/82/28 30/50/28 29/48/28
