# Made in Blockbench 4.11.2
mtllib asbestos_belt.mtl

o belt
v -0.15687499999999993 0.031874999999999876 0.28187500000000004
v 0.15687500000000004 0.031874999999999876 0.28187499999999993
v -0.15687499999999993 -0.781875 0.28187500000000004
v 0.15687500000000004 -0.781875 0.28187499999999993
v 0.15687499999999993 0.031874999999999876 -0.28187500000000004
v -0.15687500000000004 0.031874999999999876 -0.28187499999999993
v 0.15687499999999993 -0.781875 -0.28187500000000004
v -0.15687500000000004 -0.781875 -0.28187499999999993
vt 0.125 0.875
vt 0.375 0.875
vt 0.375 0.5
vt 0.125 0.5
vt 0 0.875
vt 0.125 0.875
vt 0.125 0.5
vt 0 0.5
vt 0.5 0.875
vt 0.75 0.875
vt 0.75 0.5
vt 0.5 0.5
vt 0.375 0.875
vt 0.5 0.875
vt 0.5 0.5
vt 0.375 0.5
vt 0.375 0.875
vt 0.125 0.875
vt 0.125 1
vt 0.375 1
vt 0.625 1
vt 0.375 1
vt 0.375 0.875
vt 0.625 0.875
vn 1 0 -2.220446049250313e-16
vn 2.220446049250313e-16 0 1
vn -1 0 2.220446049250313e-16
vn -2.220446049250313e-16 0 -1
vn 0 1 0
vn 0 -1 0
usemtl m_5949d32f-0394-51de-a934-eb582784295d
f 4/4/1 7/3/1 5/2/1 2/1/1
f 3/8/2 4/7/2 2/6/2 1/5/2
f 8/12/3 3/11/3 1/10/3 6/9/3
f 7/16/4 8/15/4 6/14/4 5/13/4
f 6/20/5 1/19/5 2/18/5 5/17/5
f 7/24/6 4/23/6 3/22/6 8/21/6
