# Made in Blockbench 4.11.2
mtllib nomex_left_leg.mtl

o leggings_left
v 0.15 0.15000000000000002 -0.15624999999999997
v -0.15000000000000002 0.15000000000000002 -0.15625000000000003
v 0.15 -0.55625 -0.15624999999999997
v -0.15000000000000002 -0.55625 -0.15625000000000003
v -0.15000000000000008 0.15000000000000002 0.14374999999999993
v 0.14999999999999994 0.15000000000000002 0.14375000000000004
v -0.15000000000000008 -0.55625 0.14374999999999993
v 0.14999999999999994 -0.55625 0.14375000000000004
vt 0.25 0.875
vt 0.125 0.875
vt 0.125 0.5625
vt 0.25 0.5625
vt 0.375 0.875
vt 0.25 0.875
vt 0.25 0.5625
vt 0.375 0.5625
vt 0.5 0.875
vt 0.375 0.875
vt 0.375 0.5625
vt 0.5 0.5625
vt 0.125 0.875
vt 0 0.875
vt 0 0.5625
vt 0.125 0.5625
vt 0.125 0.875
vt 0.25 0.875
vt 0.25 1
vt 0.125 1
vt 0.25 1
vt 0.375 1
vt 0.375 0.875
vt 0.25 0.875
vn -1 0 -2.220446049250313e-16
vn 2.220446049250313e-16 0 -1
vn 1 0 2.220446049250313e-16
vn -2.220446049250313e-16 0 1
vn 0 1 0
vn 0 -1 0
usemtl m_02a51ee3-f5c1-cd12-65bc-c058bc31a5c6
f 4/4/1 7/3/1 5/2/1 2/1/1
f 3/8/2 4/7/2 2/6/2 1/5/2
f 8/12/3 3/11/3 1/10/3 6/9/3
f 7/16/4 8/15/4 6/14/4 5/13/4
f 6/20/5 1/19/5 2/18/5 5/17/5
f 7/24/6 4/23/6 3/22/6 8/21/6