# Made in Blockbench 4.11.2
mtllib nomex_right_foot.mtl

o feet_right
v 0.15625 0.0 -0.15
v -0.15625 0.0 -0.15
v 0.15625 -0.71875 -0.15
v -0.15625 -0.71875 -0.15
v -0.15625 0.0 0.1625
v 0.15625 0.0 0.1625
v -0.15625 -0.71875 0.1625
v 0.15625 -0.71875 0.1625
vt 0.0 0.4375
vt 0.125 0.4375
vt 0.125 0.125
vt 0.0 0.125
vt 0.25 0.4375
vt 0.375 0.4375
vt 0.375 0.125
vt 0.25 0.125
vt 0.125 0.4375
vt 0.25 0.4375
vt 0.25 0.125
vt 0.125 0.125
vt 0.375 0.4375
vt 0.5 0.4375
vt 0.5 0.125
vt 0.375 0.125
vt 0.25 0.125
vt 0.375 0.125
vt 0.375 0.0
vt 0.25 0.0
vt 0.125 0.125
vt 0.25 0.125
vt 0.25 0.0
vt 0.125 0.0
vn -1 0 -2.220446049250313e-16
vn 2.220446049250313e-16 0 -1
vn 1 0 2.220446049250313e-16
vn -2.220446049250313e-16 0 1
vn 0 1 0
vn 0 -1 0
usemtl m_88d90717-7a97-65ec-0381-649670f355ef
f 4/4/1 7/3/1 5/2/1 2/1/1
f 3/8/2 4/7/2 2/6/2 1/5/2
f 8/12/3 3/11/3 1/10/3 6/9/3
f 7/16/4 8/15/4 6/14/4 5/13/4
f 6/20/5 1/19/5 2/18/5 5/17/5
f 7/24/6 4/23/6 3/22/6 8/21/6
