# Made in Blockbench 4.11.2
mtllib nomex_legs_top.mtl

o belt
v 0.281875 1.5318749999999999 0.156875
v 0.281875 1.5318749999999999 -0.156875
v 0.281875 0.718125 0.156875
v 0.281875 0.718125 -0.156875
v -0.281875 1.5318749999999999 -0.156875
v -0.281875 1.5318749999999999 0.156875
v -0.281875 0.718125 -0.156875
v -0.281875 0.718125 0.156875
vt 0.125 0.875
vt 0.375 0.875
vt 0.375 0.5
vt 0.125 0.5
vt 0 0.875
vt 0.125 0.875
vt 0.125 0.5
vt 0 0.5
vt 0.5 0.875
vt 0.75 0.875
vt 0.75 0.5
vt 0.5 0.5
vt 0.375 0.875
vt 0.5 0.875
vt 0.5 0.5
vt 0.375 0.5
vt 0.375 0.875
vt 0.125 0.875
vt 0.125 1
vt 0.375 1
vt 0.625 1
vt 0.375 1
vt 0.375 0.875
vt 0.625 0.875
vn 0 0 -1
vn 1 0 0
vn 0 0 1
vn -1 0 0
vn 0 1 0
vn 0 -1 0
usemtl m_574cd15e-defe-0a85-4631-fa756f18cb3d
f 4/4/1 7/3/1 5/2/1 2/1/1
f 3/8/2 4/7/2 2/6/2 1/5/2
f 8/12/3 3/11/3 1/10/3 6/9/3
f 7/16/4 8/15/4 6/14/4 5/13/4
f 6/20/5 1/19/5 2/18/5 5/17/5
f 7/24/6 4/23/6 3/22/6 8/21/6
