# Made in Blockbench 4.11.2
mtllib nomex_left_leg.mtl

o leggings_left
v 0.15625 0.15625 -0.16249999999999998
v -0.15625 0.15625 -0.16250000000000003
v 0.15625 -0.5625 -0.16249999999999998
v -0.15625 -0.5625 -0.16250000000000003
v 0.15624999999999994 0.15625 0.15000000000000008
v -0.15625000000000006 0.15625 0.14999999999999997
v 0.15624999999999994 -0.5625 0.15000000000000008
v -0.15625000000000006 -0.5625 0.14999999999999997
vt 0.25 0.5625
vt 0.25 0.875
vt 0.375 0.875
vt 0.375 0.5625
vt 0 0.5625
vt 0 0.875
vt 0.125 0.875
vt 0.125 0.5625
vt 0.25 1
vt 0.25 0.875
vt 0.125 0.875
vt 0.125 1
vt 0.375 0.875
vt 0.375 1
vt 0.25 1
vt 0.25 0.875
vt 0.375 0.5625
vt 0.375 0.875
vt 0.5 0.875
vt 0.5 0.5625
vt 0.125 0.5625
vt 0.125 0.875
vt 0.25 0.875
vt 0.25 0.5625
vn 2.220446049250313e-16 0 -1
vn -2.220446049250313e-16 0 1
vn 0 1 0
vn 0 -1 0
vn 1 0 2.220446049250313e-16
vn -1 0 -2.220446049250313e-16
usemtl m_02a51ee3-f5c1-cd12-65bc-c058bc31a5c6
f 4/1/1 2/2/1 1/3/1 3/4/1
f 7/5/2 5/6/2 6/7/2 8/8/2
f 1/9/3 2/10/3 6/11/3 5/12/3
f 4/13/4 3/14/4 7/15/4 8/16/4
f 3/17/5 1/18/5 5/19/5 7/20/5
f 8/21/6 6/22/6 2/23/6 4/24/6