# Blender 5.2.0 LTS
# www.blender.org
mtllib earth_landing_system.mtl
o Apollo
v 0.000000 -0.453513 1.948901
v 0.000000 -2.454367 0.580631
v 0.150278 -2.454367 0.560846
v 0.504413 -0.453513 1.882494
v 0.290315 -2.454367 0.502841
v 0.974450 -0.453513 1.687798
v 0.410568 -2.454367 0.410568
v 1.378081 -0.453513 1.378081
v 0.502841 -2.454367 0.290315
v 1.687798 -0.453513 0.974450
v 0.560846 -2.454367 0.150278
v 1.882494 -0.453513 0.504413
v 0.580631 -2.454367 0.000000
v 1.948901 -0.453513 0.000000
v 0.560846 -2.454367 -0.150278
v 1.882494 -0.453513 -0.504413
v 0.502841 -2.454367 -0.290315
v 1.687798 -0.453513 -0.974450
v 0.410568 -2.454367 -0.410568
v 1.378081 -0.453513 -1.378081
v 0.290315 -2.454367 -0.502841
v 0.974450 -0.453513 -1.687798
v 0.150278 -2.454367 -0.560846
v 0.504413 -0.453513 -1.882494
v 0.000000 -2.454367 -0.580631
v 0.000000 -0.453513 -1.948901
v -0.150278 -2.454367 -0.560846
v -0.504413 -0.453513 -1.882494
v -0.290315 -2.454367 -0.502841
v -0.974450 -0.453513 -1.687798
v -0.410568 -2.454367 -0.410568
v -1.378081 -0.453513 -1.378081
v -0.502841 -2.454367 -0.290315
v -1.687798 -0.453513 -0.974450
v -0.560846 -2.454367 -0.150278
v -1.882494 -0.453513 -0.504413
v -0.580631 -2.454367 0.000000
v -1.948901 -0.453513 0.000000
v -0.560846 -2.454367 0.150278
v -1.882494 -0.453513 0.504413
v -0.502841 -2.454367 0.290315
v -1.687798 -0.453513 0.974450
v -0.410568 -2.454367 0.410568
v -1.378081 -0.453513 1.378081
v -0.290315 -2.454367 0.502841
v -0.974450 -0.453513 1.687798
v 0.373107 -2.454367 0.373107
v 0.263827 -2.454367 0.456961
v 0.263827 -2.495945 0.456961
v 0.373107 -2.495945 0.373107
v -0.150278 -2.454367 0.560846
v -0.504413 -0.453513 1.882494
v 0.954790 -0.353531 1.653745
v 0.494236 -0.353531 1.844513
v 1.909580 -0.353531 0.000000
v 1.844513 -0.353531 -0.494236
v 1.749752 -0.265404 -0.468845
v 1.811477 -0.265404 0.000000
v 0.000000 -0.353531 -1.909580
v 0.494236 -0.353531 -1.844513
v -1.844513 -0.353531 -0.494236
v -1.653745 -0.353531 -0.954790
v -0.954790 -0.353531 1.653745
v -1.350277 -0.353531 1.350277
v 1.844513 -0.353531 0.494236
v 1.653745 -0.353531 0.954790
v 0.954790 -0.353531 -1.653745
v 1.350277 -0.353531 -1.350277
v -1.350277 -0.353531 -1.350277
v -0.954790 -0.353531 -1.653745
v -1.653745 -0.353531 0.954790
v -1.844513 -0.353531 0.494236
v 1.350277 -0.353531 1.350277
v 1.653745 -0.353531 -0.954790
v -0.494236 -0.353531 -1.844513
v 0.000000 -0.353531 1.909580
v -1.909580 -0.353531 0.000000
v -0.494236 -0.353531 1.844513
v -0.693043 -0.057098 0.185700
v -0.337912 -0.013617 0.090543
v -0.349833 -0.013617 0.000000
v -0.717491 -0.057098 0.000000
v -0.905738 -0.265404 1.568785
v -1.280908 -0.265404 1.280908
v -1.280908 -0.265404 -1.280908
v -0.905738 -0.265404 -1.568785
v 1.568785 -0.265404 -0.905738
v -0.468845 -0.265404 1.749752
v 0.468845 -0.265404 1.749752
v 0.000000 -0.265404 1.811477
v -1.568785 -0.265404 -0.905738
v 1.280908 -0.265404 -1.280908
v 0.905738 -0.265404 1.568785
v -1.749752 -0.265404 -0.468845
v 0.905738 -0.265404 -1.568785
v 1.280907 -0.265404 1.280908
v -1.811477 -0.265404 0.000000
v 0.468845 -0.265404 -1.749752
v 1.568785 -0.265404 0.905738
v -1.749752 -0.265404 0.468845
v 0.000000 -0.265404 -1.811477
v 1.749752 -0.265404 0.468845
v -1.568785 -0.265404 0.905738
v -0.468845 -0.265404 -1.749752
v 0.621365 -0.057098 -0.358746
v 0.302964 -0.013617 -0.174916
v 0.337913 -0.013617 -0.090543
v 0.693043 -0.057099 -0.185700
v 0.000000 -0.057099 -0.717491
v 0.000000 -0.013617 -0.349833
v 0.090543 -0.013617 -0.337912
v 0.185700 -0.057098 -0.693043
v 0.693043 -0.057099 0.185700
v 0.337913 -0.013617 0.090543
v 0.302964 -0.013617 0.174916
v 0.621366 -0.057098 0.358746
v -0.621365 -0.057098 0.358745
v -0.302964 -0.013617 0.174916
v -0.185700 -0.057098 -0.693043
v -0.090543 -0.013617 -0.337913
v 0.717491 -0.057098 0.000000
v 0.349833 -0.013617 0.000000
v -0.507343 -0.057098 0.507343
v -0.247369 -0.013617 0.247369
v -0.358745 -0.057098 -0.621365
v -0.174916 -0.013617 -0.302964
v -0.358745 -0.057098 0.621365
v -0.174916 -0.013617 0.302964
v -0.507343 -0.057098 -0.507343
v -0.247369 -0.013617 -0.247369
v -0.185700 -0.057098 0.693043
v -0.090543 -0.013617 0.337912
v -0.621365 -0.057098 -0.358745
v -0.302964 -0.013617 -0.174916
v 0.507343 -0.057098 -0.507343
v 0.247369 -0.013617 -0.247369
v 0.000000 -0.057098 0.717491
v 0.000000 -0.013617 0.349833
v 0.358746 -0.057099 0.621365
v 0.174916 -0.013617 0.302964
v 0.090543 -0.013617 0.337912
v 0.185700 -0.057098 0.693043
v -0.693043 -0.057098 -0.185700
v -0.337912 -0.013617 -0.090543
v 0.358746 -0.057098 -0.621365
v 0.174916 -0.013617 -0.302964
v 0.507343 -0.057098 0.507343
v 0.247369 -0.013617 0.247369
v 0.376014 -0.166771 1.403304
v 0.000000 -0.166771 1.452807
v 0.281288 -0.097312 1.049783
v 0.000000 -0.097311 1.086815
v 1.258168 -0.166771 0.726404
v 1.027290 -0.166771 1.027290
v 0.941210 -0.097311 0.543408
v 0.768494 -0.097311 0.768494
v 0.376014 -0.166771 -1.403304
v 0.726404 -0.166771 -1.258168
v 0.281289 -0.097311 -1.049783
v 0.543408 -0.097311 -0.941210
v -1.452807 -0.166771 0.000000
v -1.403304 -0.166771 -0.376014
v -1.086815 -0.097312 0.000000
v -1.049783 -0.097311 -0.281289
v 0.726404 -0.166771 1.258168
v 0.543408 -0.097311 0.941210
v 1.027290 -0.166771 -1.027290
v 0.768494 -0.097311 -0.768494
v -1.258168 -0.166771 -0.726404
v -0.941210 -0.097311 -0.543408
v -0.376014 -0.166771 1.403304
v -0.281288 -0.097311 1.049783
v 1.258168 -0.166771 -0.726404
v 0.941210 -0.097311 -0.543408
v -1.027290 -0.166771 -1.027290
v -0.768494 -0.097311 -0.768494
v -0.726404 -0.166771 1.258168
v -0.543408 -0.097311 0.941210
v -0.726404 -0.166771 -1.258168
v -0.543408 -0.097311 -0.941210
v -1.027290 -0.166771 1.027290
v -0.768494 -0.097311 0.768494
v 1.403304 -0.166771 -0.376014
v 1.452807 -0.166771 0.000000
v 1.049783 -0.097312 -0.281288
v 1.086815 -0.097311 0.000000
v -0.376014 -0.166771 -1.403304
v -0.281288 -0.097311 -1.049783
v -1.258168 -0.166771 0.726404
v -0.941210 -0.097311 0.543408
v 1.403304 -0.166771 0.376014
v 1.049783 -0.097312 0.281288
v 0.000000 -0.166771 -1.452807
v 0.000000 -0.097312 -1.086815
v -1.403304 -0.166771 0.376014
v -1.049783 -0.097311 0.281288
v 0.000000 -2.454367 0.527653
v 0.136567 -2.454367 0.509674
v 0.456961 -2.454367 0.263827
v 0.509674 -2.454367 0.136567
v 0.527653 -2.454367 0.000000
v 0.509674 -2.454367 -0.136567
v 0.456961 -2.454367 -0.263827
v 0.373107 -2.454367 -0.373107
v 0.263827 -2.454367 -0.456961
v 0.136567 -2.454367 -0.509674
v 0.000000 -2.454367 -0.527653
v -0.136567 -2.454367 -0.509674
v -0.263827 -2.454367 -0.456961
v -0.373107 -2.454367 -0.373107
v -0.456961 -2.454367 -0.263827
v -0.509674 -2.454367 -0.136567
v -0.527653 -2.454367 0.000000
v -0.509674 -2.454367 0.136567
v -0.456961 -2.454367 0.263827
v -0.373107 -2.454367 0.373107
v -0.263827 -2.454367 0.456961
v -0.136567 -2.454367 0.509674
v 0.212696 -2.495945 0.368400
v 0.110099 -2.495945 0.410897
v 0.110099 -2.486886 0.410897
v 0.212696 -2.486886 0.368400
v -0.509674 -2.495945 -0.136567
v -0.527653 -2.495945 0.000000
v 0.263827 -2.495945 -0.456961
v 0.136567 -2.495945 -0.509674
v 0.456961 -2.495945 0.263827
v -0.509674 -2.495945 0.136567
v 0.000000 -2.495945 -0.527653
v 0.509674 -2.495945 0.136567
v -0.456961 -2.495945 0.263827
v -0.136567 -2.495945 -0.509674
v 0.527653 -2.495945 0.000000
v -0.373107 -2.495945 0.373107
v -0.263827 -2.495945 -0.456961
v 0.509674 -2.495945 -0.136567
v -0.263827 -2.495945 0.456961
v -0.373107 -2.495945 -0.373107
v 0.456961 -2.495945 -0.263827
v -0.136567 -2.495945 0.509674
v 0.000000 -2.495945 0.527653
v 0.136567 -2.495945 0.509674
v -0.456961 -2.495945 -0.263827
v 0.373107 -2.495945 -0.373107
v 0.000000 -2.495945 0.425392
v 0.300797 -2.495945 0.300797
v 0.368400 -2.495945 0.212696
v 0.410897 -2.495945 0.110099
v 0.425392 -2.495945 0.000000
v 0.410897 -2.495945 -0.110099
v 0.368400 -2.495945 -0.212696
v 0.300797 -2.495945 -0.300797
v 0.212696 -2.495945 -0.368400
v 0.110099 -2.495945 -0.410897
v 0.000000 -2.495945 -0.425392
v -0.110099 -2.495945 -0.410897
v -0.212696 -2.495945 -0.368400
v -0.300797 -2.495945 -0.300797
v -0.368400 -2.495945 -0.212696
v -0.410897 -2.495945 -0.110099
v -0.425392 -2.495945 0.000000
v -0.410897 -2.495945 0.110099
v -0.368400 -2.495945 0.212696
v -0.300797 -2.495945 0.300797
v -0.212696 -2.495945 0.368400
v -0.110099 -2.495945 0.410897
v 0.000000 -2.486886 0.425392
v -0.110099 -2.486886 0.410897
v -0.212696 -2.486886 0.368400
v -0.368400 -2.486886 -0.212696
v -0.410897 -2.486886 -0.110099
v 0.300797 -2.486886 -0.300797
v 0.212696 -2.486886 -0.368400
v 0.300797 -2.486886 0.300797
v -0.425392 -2.486886 0.000000
v 0.110099 -2.486886 -0.410897
v 0.368400 -2.486886 0.212696
v -0.410897 -2.486886 0.110099
v 0.000000 -2.486886 -0.425392
v 0.410897 -2.486886 0.110099
v -0.368400 -2.486886 0.212696
v 0.425392 -2.486886 0.000000
v -0.300797 -2.486886 0.300797
v -0.110099 -2.486886 -0.410897
v -0.212696 -2.486886 -0.368400
v 0.410897 -2.486886 -0.110099
v -0.300797 -2.486886 -0.300797
v 0.368400 -2.486886 -0.212696
vn 0.1080 -0.5612 0.8206
vn 0.3167 -0.5612 0.7647
vn 0.5039 -0.5612 0.6567
vn 0.6567 -0.5612 0.5039
vn 0.7647 -0.5612 0.3167
vn 0.8206 -0.5612 0.1080
vn 0.8206 -0.5612 -0.1080
vn 0.7647 -0.5612 -0.3167
vn 0.6567 -0.5612 -0.5039
vn 0.5039 -0.5612 -0.6567
vn 0.3167 -0.5612 -0.7647
vn 0.1080 -0.5612 -0.8206
vn -0.1080 -0.5612 -0.8206
vn -0.3167 -0.5612 -0.7647
vn -0.5039 -0.5612 -0.6567
vn -0.6567 -0.5612 -0.5039
vn -0.7647 -0.5612 -0.3167
vn -0.8206 -0.5612 -0.1080
vn -0.8206 -0.5612 0.1080
vn -0.7647 -0.5612 0.3167
vn -0.6567 -0.5612 0.5039
vn -0.5039 -0.5612 0.6567
vn 0.6088 -0.0000 0.7934
vn -0.3167 -0.5612 0.7647
vn -0.1080 -0.5612 0.8206
vn 0.3565 0.3633 0.8608
vn 0.6657 0.7411 -0.0876
vn 0.9237 0.3633 -0.1216
vn 0.1216 0.3633 -0.9237
vn -0.8608 0.3633 -0.3565
vn -0.5672 0.3633 0.7392
vn 0.8608 0.3633 0.3565
vn 0.5672 0.3633 -0.7392
vn -0.5672 0.3633 -0.7392
vn -0.8608 0.3633 0.3565
vn 0.5672 0.3633 0.7392
vn 0.8608 0.3633 -0.3565
vn -0.1216 0.3633 -0.9237
vn 0.1216 0.3633 0.9237
vn -0.9237 0.3633 -0.1216
vn -0.3565 0.3633 0.8608
vn 0.9237 0.3633 0.1216
vn 0.3565 0.3633 -0.8608
vn -0.7392 0.3633 -0.5672
vn -0.7392 0.3633 0.5672
vn 0.7392 0.3633 0.5672
vn 0.7392 0.3633 -0.5672
vn -0.3565 0.3633 -0.8608
vn -0.9237 0.3633 0.1216
vn -0.1216 0.3633 0.9237
vn -0.1148 0.9933 0.0116
vn -0.1174 0.9930 0.0155
vn -0.1139 0.9933 0.0186
vn -0.4087 0.7411 0.5327
vn -0.4087 0.7411 -0.5327
vn 0.6203 0.7411 -0.2569
vn -0.2570 0.7411 0.6203
vn 0.0876 0.7411 0.6657
vn -0.5327 0.7411 -0.4087
vn 0.5327 0.7411 -0.4087
vn -0.0876 0.7411 0.6657
vn 0.2570 0.7411 0.6203
vn -0.6203 0.7411 -0.2569
vn 0.4087 0.7411 -0.5327
vn 0.4087 0.7411 0.5327
vn -0.6657 0.7411 -0.0876
vn 0.2570 0.7411 -0.6203
vn 0.5327 0.7411 0.4087
vn -0.6657 0.7411 0.0876
vn 0.0876 0.7411 -0.6657
vn 0.6203 0.7411 0.2569
vn -0.6203 0.7411 0.2569
vn -0.0876 0.7411 -0.6657
vn 0.6657 0.7411 0.0876
vn -0.5327 0.7411 0.4087
vn -0.2570 0.7411 -0.6203
vn 0.1080 0.9933 -0.0409
vn 0.1094 0.9930 -0.0453
vn 0.1052 0.9933 -0.0474
vn 0.0186 0.9933 -0.1139
vn 0.0155 0.9930 -0.1174
vn 0.0116 0.9933 -0.1148
vn 0.1053 0.9933 0.0474
vn 0.1094 0.9930 0.0453
vn 0.1080 0.9933 0.0409
vn -0.1079 0.9933 0.0409
vn -0.1094 0.9930 0.0453
vn -0.1052 0.9933 0.0474
vn -0.0116 0.9933 -0.1148
vn -0.0155 0.9930 -0.1174
vn -0.0186 0.9933 -0.1139
vn 0.1140 0.9933 0.0185
vn 0.1174 0.9930 0.0155
vn 0.1149 0.9933 0.0116
vn -0.0937 0.9933 0.0674
vn -0.0940 0.9930 0.0721
vn -0.0894 0.9933 0.0730
vn -0.0409 0.9933 -0.1079
vn -0.0453 0.9930 -0.1094
vn -0.0474 0.9933 -0.1052
vn 0.1140 0.9933 -0.0185
vn 0.1148 0.9933 -0.0116
vn 0.1174 0.9930 -0.0155
vn -0.0730 0.9933 0.0894
vn -0.0721 0.9930 0.0940
vn -0.0674 0.9933 0.0937
vn -0.0674 0.9933 -0.0937
vn -0.0721 0.9930 -0.0940
vn -0.0730 0.9933 -0.0894
vn -0.0474 0.9933 0.1052
vn -0.0453 0.9930 0.1094
vn -0.0409 0.9933 0.1079
vn -0.0894 0.9933 -0.0730
vn -0.0940 0.9930 -0.0721
vn -0.0937 0.9933 -0.0674
vn 0.0937 0.9933 -0.0674
vn 0.0940 0.9930 -0.0721
vn 0.0894 0.9933 -0.0730
vn -0.0186 0.9933 0.1139
vn -0.0155 0.9930 0.1174
vn -0.0116 0.9933 0.1148
vn 0.0409 0.9933 0.1079
vn 0.0453 0.9930 0.1094
vn 0.0474 0.9933 0.1052
vn -0.1052 0.9933 -0.0474
vn -0.1094 0.9930 -0.0453
vn -0.1079 0.9933 -0.0409
vn 0.0730 0.9933 -0.0894
vn 0.0721 0.9930 -0.0940
vn 0.0674 0.9933 -0.0937
vn 0.0674 0.9933 0.0937
vn 0.0721 0.9930 0.0940
vn 0.0730 0.9933 0.0894
vn -0.1139 0.9933 -0.0186
vn -0.1174 0.9930 -0.0155
vn -0.1148 0.9933 -0.0116
vn 0.0474 0.9933 -0.1052
vn 0.0453 0.9930 -0.1094
vn 0.0409 0.9933 -0.1080
vn 0.0894 0.9933 0.0730
vn 0.0940 0.9930 0.0721
vn 0.0937 0.9933 0.0674
vn 0.7934 -0.0000 0.6088
vn 0.0116 0.9933 0.1148
vn 0.0155 0.9930 0.1174
vn 0.0186 0.9933 0.1139
vn 0.0349 0.9636 0.2650
vn 0.0245 0.9822 0.1864
vn 0.0143 0.9940 0.1082
vn 0.0116 0.9936 0.1121
vn 0.0178 0.9936 0.1113
vn 0.2120 0.9636 0.1627
vn 0.1492 0.9822 0.1145
vn 0.0866 0.9940 0.0665
vn 0.0875 0.9936 0.0710
vn 0.0913 0.9936 0.0661
vn 0.1023 0.9636 -0.2469
vn 0.0719 0.9822 -0.1737
vn 0.0418 0.9940 -0.1009
vn 0.0460 0.9936 -0.1029
vn 0.0403 0.9936 -0.1052
vn -0.2650 0.9636 -0.0349
vn -0.1864 0.9822 -0.0245
vn -0.1082 0.9940 -0.0142
vn -0.1113 0.9936 -0.0178
vn -0.1121 0.9936 -0.0116
vn 0.1627 0.9636 0.2120
vn 0.1145 0.9822 0.1492
vn 0.0665 0.9940 0.0866
vn 0.0661 0.9936 0.0913
vn 0.0710 0.9936 0.0875
vn 0.1627 0.9636 -0.2120
vn 0.1145 0.9822 -0.1492
vn 0.0665 0.9940 -0.0866
vn 0.0710 0.9936 -0.0875
vn 0.0661 0.9936 -0.0913
vn -0.2469 0.9636 -0.1023
vn -0.1737 0.9822 -0.0719
vn -0.1009 0.9940 -0.0418
vn -0.1029 0.9936 -0.0460
vn -0.1053 0.9936 -0.0403
vn 0.1023 0.9636 0.2469
vn 0.0719 0.9822 0.1737
vn 0.0418 0.9940 0.1009
vn 0.0403 0.9936 0.1053
vn 0.0460 0.9936 0.1029
vn -0.0349 0.9636 0.2650
vn -0.0245 0.9822 0.1864
vn -0.0142 0.9940 0.1082
vn -0.0178 0.9936 0.1113
vn -0.0116 0.9936 0.1121
vn 0.2120 0.9636 -0.1627
vn 0.1492 0.9822 -0.1145
vn 0.0866 0.9940 -0.0665
vn 0.0913 0.9936 -0.0661
vn 0.0875 0.9936 -0.0710
vn -0.2120 0.9636 -0.1627
vn -0.1492 0.9822 -0.1145
vn -0.0866 0.9940 -0.0665
vn -0.0875 0.9936 -0.0711
vn -0.0913 0.9936 -0.0661
vn -0.1023 0.9636 0.2469
vn -0.0719 0.9822 0.1737
vn -0.0418 0.9940 0.1009
vn -0.0460 0.9936 0.1029
vn -0.0403 0.9936 0.1053
vn -0.1627 0.9636 -0.2120
vn -0.1145 0.9822 -0.1492
vn -0.0665 0.9940 -0.0866
vn -0.0661 0.9936 -0.0913
vn -0.0711 0.9936 -0.0875
vn -0.1627 0.9636 0.2120
vn -0.1145 0.9822 0.1492
vn -0.0665 0.9940 0.0866
vn -0.0711 0.9936 0.0875
vn -0.0661 0.9936 0.0913
vn 0.2650 0.9636 -0.0349
vn 0.1864 0.9822 -0.0245
vn 0.1082 0.9940 -0.0143
vn 0.1121 0.9936 -0.0116
vn 0.1113 0.9936 -0.0177
vn -0.1023 0.9636 -0.2469
vn -0.0719 0.9822 -0.1737
vn -0.0418 0.9940 -0.1009
vn -0.0403 0.9936 -0.1053
vn -0.0460 0.9936 -0.1029
vn -0.2120 0.9636 0.1627
vn -0.1492 0.9822 0.1145
vn -0.0866 0.9940 0.0665
vn -0.0913 0.9936 0.0661
vn -0.0875 0.9936 0.0711
vn 0.2650 0.9636 0.0349
vn 0.1864 0.9822 0.0245
vn 0.1082 0.9940 0.0143
vn 0.1113 0.9936 0.0177
vn 0.1121 0.9936 0.0117
vn -0.0349 0.9636 -0.2650
vn -0.0245 0.9822 -0.1864
vn -0.0142 0.9940 -0.1082
vn -0.0116 0.9936 -0.1121
vn -0.0178 0.9936 -0.1113
vn -0.2469 0.9636 0.1023
vn -0.1737 0.9822 0.0719
vn -0.1009 0.9940 0.0418
vn -0.1053 0.9936 0.0403
vn -0.1029 0.9936 0.0460
vn 0.2469 0.9636 0.1023
vn 0.1737 0.9822 0.0719
vn 0.1009 0.9940 0.0418
vn 0.1029 0.9936 0.0459
vn 0.1052 0.9936 0.0403
vn 0.0349 0.9636 -0.2650
vn 0.0245 0.9822 -0.1864
vn 0.0142 0.9940 -0.1082
vn 0.0178 0.9936 -0.1113
vn 0.0116 0.9936 -0.1121
vn 0.2469 0.9636 -0.1023
vn 0.1737 0.9822 -0.0719
vn 0.1009 0.9940 -0.0418
vn 0.1052 0.9936 -0.0403
vn 0.1029 0.9936 -0.0460
vn -0.2650 0.9636 0.0349
vn -0.1864 0.9822 0.0245
vn -0.1082 0.9940 0.0142
vn -0.1121 0.9936 0.0116
vn -0.1113 0.9936 0.0178
vn -0.0000 -1.0000 -0.0000
vn -0.3827 -0.0000 -0.9239
vn -0.9914 -0.0000 -0.1305
vn 0.3827 -0.0000 -0.9239
vn -0.9914 -0.0000 0.1305
vn 0.1305 -0.0000 -0.9914
vn 0.9239 -0.0000 0.3827
vn -0.9239 -0.0000 0.3827
vn -0.1305 -0.0000 -0.9914
vn 0.9914 -0.0000 0.1305
vn -0.7934 -0.0000 0.6088
vn 0.9914 -0.0000 -0.1305
vn -0.6088 -0.0000 0.7934
vn -0.6088 -0.0000 -0.7934
vn 0.9239 -0.0000 -0.3827
vn -0.3827 -0.0000 0.9239
vn 0.1305 -0.0000 0.9914
vn -0.7934 -0.0000 -0.6088
vn 0.7934 -0.0000 -0.6088
vn -0.1305 -0.0000 0.9914
vn 0.3827 -0.0000 0.9239
vn -0.9239 -0.0000 -0.3827
vn 0.6088 -0.0000 -0.7934
vn -0.0000 1.0000 -0.0000
vn -0.6088 -0.0000 0.7933
vn -0.6088 -0.0000 -0.7933
vn 0.6088 -0.0000 -0.7933
vn 0.6088 -0.0000 0.7933
vt 0.905896 0.677800
vt 0.879556 0.996100
vt 0.857396 0.996100
vt 0.831057 0.677800
vt 0.804716 0.996100
vt 0.782557 0.996100
vt 0.756217 0.677800
vt 0.729877 0.996100
vt 0.707718 0.996100
vt 0.681378 0.677800
vt 0.655038 0.996100
vt 0.632879 0.996100
vt 0.606539 0.677800
vt 0.580199 0.996100
vt 0.558040 0.996100
vt 0.531700 0.677800
vt 0.505360 0.996100
vt 0.483201 0.996100
vt 0.456861 0.677800
vt 0.430521 0.996100
vt 0.408362 0.996100
vt 0.382022 0.677800
vt 0.355682 0.996100
vt 0.333523 0.996100
vt 0.307183 0.677800
vt 0.280843 0.996100
vt 0.258683 0.996100
vt 0.232343 0.677800
vt 0.206003 0.996100
vt 0.183844 0.996100
vt 0.157504 0.677800
vt 0.131164 0.996100
vt 0.109005 0.996100
vt 0.082665 0.677800
vt 0.056325 0.996100
vt 0.034166 0.996100
vt 0.007826 0.677800
vt 0.021517 0.117217
vt 0.339817 0.143557
vt 0.339817 0.165717
vt 0.021517 0.192056
vt 0.339817 0.218396
vt 0.339817 0.240556
vt 0.021517 0.266896
vt 0.339817 0.293235
vt 0.339817 0.315395
vt 0.021517 0.341735
vt 0.560604 0.500455
vt 0.878904 0.526795
vt 0.878904 0.548954
vt 0.560604 0.575294
vt 0.878904 0.601634
vt 0.878904 0.623793
vt 0.560604 0.650133
vt 0.530020 0.349625
vt 0.503680 0.667925
vt 0.481521 0.667925
vt 0.455181 0.349625
vt 0.428841 0.667925
vt 0.406682 0.667925
vt 0.380342 0.349625
vt 0.354002 0.667925
vt 0.331843 0.667925
vt 0.305503 0.349625
vt 0.279163 0.667925
vt 0.257003 0.667925
vt 0.230664 0.349625
vt 0.204323 0.667925
vt 0.182164 0.667925
vt 0.155824 0.349625
vt 0.132812 0.046875
vt 0.093750 0.046875
vt 0.093750 0.062500
vt 0.132812 0.062500
vt 0.129484 0.667925
vt 0.107325 0.667925
vt 0.080985 0.349625
vt 0.054645 0.667925
vt 0.032486 0.667925
vt 0.006146 0.349625
vt 0.234329 0.054632
vt 0.164016 0.054632
vt 0.164789 0.039007
vt 0.233556 0.039007
vt 0.233563 0.078070
vt 0.164781 0.078070
vt 0.166619 0.062445
vt 0.231726 0.062445
vt 0.673024 0.263529
vt 0.716424 0.251900
vt 0.714967 0.240835
vt 0.670036 0.240835
vt 0.233563 0.031195
vt 0.164781 0.031195
vt 0.166619 0.015570
vt 0.231726 0.015570
vt 0.833656 0.196993
vt 0.794745 0.219458
vt 0.799016 0.229770
vt 0.842416 0.218141
vt 0.757720 0.153151
vt 0.757720 0.198082
vt 0.768785 0.199539
vt 0.780414 0.156139
vt 0.842416 0.263529
vt 0.799016 0.251900
vt 0.794745 0.262211
vt 0.833656 0.284677
vt 0.681783 0.284677
vt 0.720695 0.262211
vt 0.735026 0.156139
vt 0.746655 0.199539
vt 0.845404 0.240835
vt 0.800472 0.240835
vt 0.695718 0.302837
vt 0.727489 0.271066
vt 0.713878 0.164898
vt 0.736343 0.203810
vt 0.713878 0.316771
vt 0.736343 0.277860
vt 0.695718 0.178833
vt 0.727489 0.210604
vt 0.735026 0.325531
vt 0.746655 0.282131
vt 0.681783 0.196993
vt 0.720695 0.219458
vt 0.819722 0.178833
vt 0.787950 0.210604
vt 0.757720 0.328519
vt 0.757720 0.283588
vt 0.801562 0.316771
vt 0.779096 0.277860
vt 0.768785 0.282131
vt 0.780414 0.325531
vt 0.673024 0.218141
vt 0.716424 0.229770
vt 0.801562 0.164898
vt 0.779096 0.203810
vt 0.819722 0.302837
vt 0.787950 0.271066
vt 0.148438 0.039063
vt 0.140625 0.039063
vt 0.140625 0.046875
vt 0.148438 0.046875
vt 0.815017 0.454670
vt 0.803672 0.412331
vt 0.757720 0.418381
vt 0.757720 0.462214
vt 0.792096 0.369128
vt 0.757720 0.373653
vt 0.949439 0.351524
vt 0.911479 0.329608
vt 0.883264 0.366379
vt 0.914258 0.397373
vt 0.872744 0.307244
vt 0.851637 0.334752
vt 0.815017 0.027000
vt 0.803672 0.069339
vt 0.846493 0.087075
vt 0.868409 0.049115
vt 0.792096 0.112542
vt 0.824129 0.125811
vt 0.536341 0.240835
vt 0.580174 0.240835
vt 0.586223 0.194883
vt 0.543884 0.183538
vt 0.624901 0.240835
vt 0.629427 0.206459
vt 0.846493 0.394594
vt 0.868409 0.432554
vt 0.824129 0.355859
vt 0.883264 0.115291
vt 0.914258 0.084296
vt 0.851637 0.146918
vt 0.603960 0.152062
vt 0.566000 0.130146
vt 0.642695 0.174426
vt 0.711767 0.412331
vt 0.700423 0.454670
vt 0.723344 0.369128
vt 0.911479 0.152062
vt 0.949439 0.130145
vt 0.872744 0.174426
vt 0.632176 0.115291
vt 0.601181 0.084296
vt 0.663803 0.146918
vt 0.668947 0.394594
vt 0.647030 0.432554
vt 0.691310 0.355859
vt 0.668947 0.087075
vt 0.647030 0.049115
vt 0.691310 0.125811
vt 0.632176 0.366379
vt 0.601181 0.397373
vt 0.663803 0.334752
vt 0.979098 0.240835
vt 0.971555 0.183538
vt 0.929216 0.194883
vt 0.935266 0.240835
vt 0.886013 0.206459
vt 0.890538 0.240835
vt 0.711767 0.069339
vt 0.700423 0.027000
vt 0.723344 0.112542
vt 0.603960 0.329608
vt 0.566000 0.351524
vt 0.642695 0.307244
vt 0.929216 0.286787
vt 0.971555 0.298132
vt 0.886013 0.275211
vt 0.757720 0.063289
vt 0.757720 0.019456
vt 0.757720 0.108016
vt 0.586223 0.286787
vt 0.543884 0.298132
vt 0.629427 0.275211
vt 0.078350 0.026231
vt 0.039287 0.026231
vt 0.037324 0.041824
vt 0.080313 0.041824
vt 0.129141 0.007823
vt 0.097482 0.007823
vt 0.093780 0.046700
vt 0.132843 0.046700
vt 0.129141 0.062510
vt 0.097482 0.062510
vt 0.093780 0.101388
vt 0.132843 0.101388
vt 0.736345 0.277857
vt 0.746656 0.282128
vt 0.727491 0.271063
vt 0.424130 0.012562
vt 0.400708 0.022264
vt 0.449265 0.009253
vt 0.380595 0.037697
vt 0.365162 0.057810
vt 0.355460 0.081232
vt 0.352151 0.106367
vt 0.355460 0.131502
vt 0.365162 0.154924
vt 0.380595 0.175037
vt 0.400708 0.190470
vt 0.449265 0.203481
vt 0.474400 0.200172
vt 0.497822 0.190470
vt 0.517935 0.175037
vt 0.533368 0.154924
vt 0.543070 0.131502
vt 0.546379 0.106367
vt 0.543070 0.081232
vt 0.533368 0.057810
vt 0.517935 0.037697
vt 0.497822 0.022264
vt 0.474400 0.012562
vt 0.720697 0.262209
vt 0.716426 0.251898
vt 0.716426 0.229769
vt 0.714969 0.240834
vt 0.727491 0.210604
vt 0.720697 0.219458
vt 0.746655 0.199539
vt 0.736345 0.203810
vt 0.768785 0.199539
vt 0.757720 0.198082
vt 0.787950 0.210604
vt 0.779096 0.203810
vt 0.799015 0.229768
vt 0.794744 0.219457
vt 0.800472 0.240833
vt 0.799015 0.251898
vt 0.794744 0.262209
vt 0.787950 0.271063
vt 0.779096 0.277857
vt 0.768786 0.282127
vt 0.757721 0.283584
vt 0.424130 0.200172
s 0
usemtl m_a9dc0ee4-ddf6-2460-d1fa-519656d847c9
f 1/1/1 2/2/1 3/3/1 4/4/1
f 4/4/2 3/5/2 5/6/2 6/7/2
f 6/7/3 5/8/3 7/9/3 8/10/3
f 8/10/4 7/11/4 9/12/4 10/13/4
f 10/13/5 9/14/5 11/15/5 12/16/5
f 12/16/6 11/17/6 13/18/6 14/19/6
f 14/19/7 13/20/7 15/21/7 16/22/7
f 16/22/8 15/23/8 17/24/8 18/25/8
f 18/25/9 17/26/9 19/27/9 20/28/9
f 20/28/10 19/29/10 21/30/10 22/31/10
f 22/31/11 21/32/11 23/33/11 24/34/11
f 24/34/12 23/35/12 25/36/12 26/37/12
f 26/38/13 25/39/13 27/40/13 28/41/13
f 28/41/14 27/42/14 29/43/14 30/44/14
f 30/44/15 29/45/15 31/46/15 32/47/15
f 32/48/16 31/49/16 33/50/16 34/51/16
f 34/51/17 33/52/17 35/53/17 36/54/17
f 36/55/18 35/56/18 37/57/18 38/58/18
f 38/58/19 37/59/19 39/60/19 40/61/19
f 40/61/20 39/62/20 41/63/20 42/64/20
f 42/64/21 41/65/21 43/66/21 44/67/21
f 44/67/22 43/68/22 45/69/22 46/70/22
f 47/71/23 48/72/23 49/73/23 50/74/23
f 46/70/24 45/75/24 51/76/24 52/77/24
f 52/77/25 51/78/25 2/79/25 1/80/25
f 4/81/26 6/82/26 53/83/26 54/84/26
f 55/85/27 56/86/27 57/87/27 58/88/27
f 14/81/28 16/82/28 56/83/28 55/84/28
f 24/81/29 26/82/29 59/83/29 60/84/29
f 34/81/30 36/82/30 61/83/30 62/84/30
f 44/81/31 46/82/31 63/83/31 64/84/31
f 10/81/32 12/82/32 65/83/32 66/84/32
f 20/81/33 22/82/33 67/83/33 68/84/33
f 30/81/34 32/82/34 69/83/34 70/84/34
f 40/81/35 42/82/35 71/83/35 72/84/35
f 6/81/36 8/82/36 73/83/36 53/84/36
f 16/81/37 18/82/37 74/83/37 56/84/37
f 26/81/38 28/82/38 75/83/38 59/84/38
f 1/81/39 4/82/39 54/83/39 76/84/39
f 36/81/40 38/82/40 77/83/40 61/84/40
f 46/81/41 52/82/41 78/83/41 63/84/41
f 12/81/42 14/82/42 55/83/42 65/84/42
f 22/81/43 24/82/43 60/83/43 67/84/43
f 32/81/44 34/82/44 62/83/44 69/84/44
f 42/81/45 44/82/45 64/83/45 71/84/45
f 8/81/46 10/82/46 66/83/46 73/84/46
f 18/81/47 20/82/47 68/83/47 74/84/47
f 28/81/48 30/82/48 70/83/48 75/84/48
f 38/81/49 40/82/49 72/83/49 77/84/49
f 52/81/50 1/82/50 76/83/50 78/84/50
f 79/89/51 80/90/52 81/91/52 82/92/53
f 64/93/54 63/94/54 83/95/54 84/96/54
f 70/85/55 69/86/55 85/87/55 86/88/55
f 56/93/56 74/94/56 87/95/56 57/96/56
f 63/85/57 78/86/57 88/87/57 83/88/57
f 76/85/58 54/86/58 89/87/58 90/88/58
f 69/93/59 62/94/59 91/95/59 85/96/59
f 74/85/60 68/86/60 92/87/60 87/88/60
f 78/93/61 76/94/61 90/95/61 88/96/61
f 54/93/62 53/94/62 93/95/62 89/96/62
f 62/85/63 61/86/63 94/87/63 91/88/63
f 68/93/64 67/94/64 95/95/64 92/96/64
f 53/85/65 73/86/65 96/87/65 93/88/65
f 61/93/66 77/94/66 97/95/66 94/96/66
f 67/85/67 60/86/67 98/87/67 95/88/67
f 73/93/68 66/94/68 99/95/68 96/96/68
f 77/85/69 72/86/69 100/87/69 97/88/69
f 60/93/70 59/94/70 101/95/70 98/96/70
f 66/85/71 65/86/71 102/87/71 99/88/71
f 72/93/72 71/94/72 103/95/72 100/96/72
f 59/85/73 75/86/73 104/87/73 101/88/73
f 65/93/74 55/94/74 58/95/74 102/96/74
f 71/85/75 64/86/75 84/87/75 103/88/75
f 75/93/76 70/94/76 86/95/76 104/96/76
f 105/97/77 106/98/78 107/99/78 108/100/79
f 109/101/80 110/102/81 111/103/81 112/104/82
f 113/105/83 114/106/84 115/107/84 116/108/85
f 117/109/86 118/110/87 80/90/87 79/89/88
f 119/111/89 120/112/90 110/102/90 109/101/91
f 121/113/92 122/114/93 114/106/93 113/105/94
f 123/115/95 124/116/96 118/110/96 117/109/97
f 125/117/98 126/118/99 120/112/99 119/111/100
f 121/113/101 108/100/102 107/99/103 122/114/103
f 127/119/104 128/120/105 124/116/105 123/115/106
f 129/121/107 130/122/108 126/118/108 125/117/109
f 131/123/110 132/124/111 128/120/111 127/119/112
f 133/125/113 134/126/114 130/122/114 129/121/115
f 135/127/116 136/128/117 106/98/117 105/97/118
f 137/129/119 138/130/120 132/124/120 131/123/121
f 139/131/122 140/132/123 141/133/123 142/134/124
f 143/135/125 144/136/126 134/126/126 133/125/127
f 145/137/128 146/138/129 136/128/129 135/127/130
f 147/139/131 148/140/132 140/132/132 139/131/133
f 82/92/134 81/91/135 144/136/135 143/135/136
f 112/104/137 111/103/138 146/138/138 145/137/139
f 116/108/140 115/107/141 148/140/141 147/139/142
f 259/141/143 258/142/143 287/143/143 270/144/143
f 142/134/144 141/133/145 138/130/145 137/129/146
f 89/145/147 149/146/147 150/147/147 90/148/147
f 149/146/148 151/149/148 152/150/148 150/147/148
f 151/149/149 142/134/150 137/129/151 152/150/149
f 99/151/152 153/152/152 154/153/152 96/154/152
f 153/152/153 155/155/153 156/156/153 154/153/153
f 155/155/154 116/108/155 147/139/156 156/156/154
f 98/157/157 157/158/157 158/159/157 95/160/157
f 157/158/158 159/161/158 160/162/158 158/159/158
f 159/161/159 112/104/160 145/137/161 160/162/159
f 97/163/162 161/164/162 162/165/162 94/166/162
f 161/164/163 163/167/163 164/168/163 162/165/163
f 163/167/164 82/92/165 143/135/166 164/168/164
f 96/154/167 154/153/167 165/169/167 93/170/167
f 154/153/168 156/156/168 166/171/168 165/169/168
f 156/156/169 147/139/170 139/131/171 166/171/169
f 95/160/172 158/159/172 167/172/172 92/173/172
f 158/159/173 160/162/173 168/174/173 167/172/173
f 160/162/174 145/137/175 135/127/176 168/174/174
f 94/166/177 162/165/177 169/175/177 91/176/177
f 162/165/178 164/168/178 170/177/178 169/175/178
f 164/168/179 143/135/180 133/125/181 170/177/179
f 93/170/182 165/169/182 149/146/182 89/145/182
f 165/169/183 166/171/183 151/149/183 149/146/183
f 166/171/184 139/131/185 142/134/186 151/149/184
f 90/148/187 150/147/187 171/178/187 88/179/187
f 150/147/188 152/150/188 172/180/188 171/178/188
f 152/150/189 137/129/190 131/123/191 172/180/189
f 92/173/192 167/172/192 173/181/192 87/182/192
f 167/172/193 168/174/193 174/183/193 173/181/193
f 168/174/194 135/127/195 105/97/196 174/183/194
f 91/176/197 169/175/197 175/184/197 85/185/197
f 169/175/198 170/177/198 176/186/198 175/184/198
f 170/177/199 133/125/200 129/121/201 176/186/199
f 88/179/202 171/178/202 177/187/202 83/188/202
f 171/178/203 172/180/203 178/189/203 177/187/203
f 172/180/204 131/123/205 127/119/206 178/189/204
f 85/185/207 175/184/207 179/190/207 86/191/207
f 175/184/208 176/186/208 180/192/208 179/190/208
f 176/186/209 129/121/210 125/117/211 180/192/209
f 83/188/212 177/187/212 181/193/212 84/194/212
f 177/187/213 178/189/213 182/195/213 181/193/213
f 178/189/214 127/119/215 123/115/216 182/195/214
f 58/196/217 57/197/217 183/198/217 184/199/217
f 184/199/218 183/198/218 185/200/218 186/201/218
f 186/201/219 185/200/219 108/100/220 121/113/221
f 86/191/222 179/190/222 187/202/222 104/203/222
f 179/190/223 180/192/223 188/204/223 187/202/223
f 180/192/224 125/117/225 119/111/226 188/204/224
f 84/194/227 181/193/227 189/205/227 103/206/227
f 181/193/228 182/195/228 190/207/228 189/205/228
f 182/195/229 123/115/230 117/109/231 190/207/229
f 58/196/232 184/199/232 191/208/232 102/209/232
f 184/199/233 186/201/233 192/210/233 191/208/233
f 186/201/234 121/113/235 113/105/236 192/210/234
f 104/203/237 187/202/237 193/211/237 101/212/237
f 187/202/238 188/204/238 194/213/238 193/211/238
f 188/204/239 119/111/240 109/101/241 194/213/239
f 103/206/242 189/205/242 195/214/242 100/215/242
f 189/205/243 190/207/243 196/216/243 195/214/243
f 190/207/244 117/109/245 79/89/246 196/216/244
f 102/209/247 191/208/247 153/152/247 99/151/247
f 191/208/248 192/210/248 155/155/248 153/152/248
f 192/210/249 113/105/250 116/108/251 155/155/249
f 101/212/252 193/211/252 157/158/252 98/157/252
f 193/211/253 194/213/253 159/161/253 157/158/253
f 194/213/254 109/101/255 112/104/256 159/161/254
f 87/182/257 173/181/257 183/198/257 57/197/257
f 173/181/258 174/183/258 185/200/258 183/198/258
f 174/183/259 105/97/260 108/100/261 185/200/259
f 100/215/262 195/214/262 161/164/262 97/163/262
f 195/214/263 196/216/263 163/167/263 161/164/263
f 196/216/264 79/89/265 82/92/266 163/167/264
f 197/217/267 198/218/267 3/219/267 2/220/267
f 198/217/267 48/218/267 5/219/267 3/220/267
f 48/217/267 47/218/267 7/219/267 5/220/267
f 47/217/267 199/218/267 9/219/267 7/220/267
f 199/217/267 200/218/267 11/219/267 9/220/267
f 200/217/267 201/218/267 13/219/267 11/220/267
f 201/217/267 202/218/267 15/219/267 13/220/267
f 202/217/267 203/218/267 17/219/267 15/220/267
f 203/217/267 204/218/267 19/219/267 17/220/267
f 204/217/267 205/218/267 21/219/267 19/220/267
f 205/217/267 206/218/267 23/219/267 21/220/267
f 206/217/267 207/218/267 25/219/267 23/220/267
f 207/217/267 208/218/267 27/219/267 25/220/267
f 208/217/267 209/218/267 29/219/267 27/220/267
f 209/217/267 210/218/267 31/219/267 29/220/267
f 210/217/267 211/218/267 33/219/267 31/220/267
f 211/217/267 212/218/267 35/219/267 33/220/267
f 212/217/267 213/218/267 37/219/267 35/220/267
f 213/217/267 214/218/267 39/219/267 37/220/267
f 214/217/267 215/218/267 41/219/267 39/220/267
f 215/217/267 216/218/267 43/219/267 41/220/267
f 216/217/267 217/218/267 45/219/267 43/220/267
f 217/217/267 218/218/267 51/219/267 45/220/267
f 218/217/267 197/218/267 2/219/267 51/220/267
f 219/141/268 220/142/268 221/143/268 222/144/268
f 213/71/269 212/72/269 223/73/269 224/74/269
f 206/71/270 205/72/270 225/73/270 226/74/270
f 199/71/143 47/72/143 50/73/143 227/74/143
f 214/71/271 213/72/271 224/73/271 228/74/271
f 207/71/272 206/72/272 226/73/272 229/74/272
f 200/71/273 199/72/273 227/73/273 230/74/273
f 215/71/274 214/72/274 228/73/274 231/74/274
f 208/71/275 207/72/275 229/73/275 232/74/275
f 201/71/276 200/72/276 230/73/276 233/74/276
f 216/71/277 215/72/277 231/73/277 234/74/277
f 209/71/268 208/72/268 232/73/268 235/74/268
f 202/71/278 201/72/278 233/73/278 236/74/278
f 217/71/279 216/72/279 234/73/279 237/74/279
f 210/71/280 209/72/280 235/73/280 238/74/280
f 203/71/281 202/72/281 236/73/281 239/74/281
f 218/71/282 217/72/282 237/73/282 240/74/282
f 198/71/283 197/72/283 241/73/283 242/74/283
f 211/71/284 210/72/284 238/73/284 243/74/284
f 204/71/285 203/72/285 239/73/285 244/74/285
f 197/71/286 218/72/286 240/73/286 241/74/286
f 48/71/287 198/72/287 242/73/287 49/74/287
f 212/71/288 211/72/288 243/73/288 223/74/288
f 205/71/289 204/72/289 244/73/289 225/74/289
f 245/221/267 220/222/267 242/223/267 241/224/267
f 220/221/267 219/222/267 49/223/267 242/224/267
f 219/221/267 246/222/267 50/223/267 49/224/267
f 246/221/267 247/222/267 227/223/267 50/224/267
f 247/221/267 248/222/267 230/223/267 227/224/267
f 248/225/267 249/226/267 233/227/267 230/228/267
f 249/221/267 250/222/267 236/223/267 233/224/267
f 250/221/267 251/222/267 239/223/267 236/224/267
f 251/221/267 252/222/267 244/223/267 239/224/267
f 252/221/267 253/222/267 225/223/267 244/224/267
f 253/221/267 254/222/267 226/223/267 225/224/267
f 254/221/267 255/222/267 229/223/267 226/224/267
f 255/225/267 256/226/267 232/227/267 229/228/267
f 256/221/267 257/222/267 235/223/267 232/224/267
f 257/221/267 258/222/267 238/223/267 235/224/267
f 258/221/267 259/222/267 243/223/267 238/224/267
f 259/221/267 260/222/267 223/223/267 243/224/267
f 260/221/267 261/222/267 224/223/267 223/224/267
f 261/221/267 262/222/267 228/223/267 224/224/267
f 262/221/267 263/222/267 231/223/267 228/224/267
f 263/221/267 264/222/267 234/223/267 231/224/267
f 264/225/267 265/226/267 237/227/267 234/228/267
f 265/221/267 266/222/267 240/223/267 237/224/267
f 266/221/267 245/222/267 241/223/267 240/224/267
f 128/229/290 132/230/290 124/231/290
f 260/141/273 259/142/273 270/143/273 271/144/273
f 253/141/291 252/142/291 272/143/291 273/144/291
f 246/141/292 219/142/292 222/143/292 274/144/292
f 261/141/276 260/142/276 271/143/276 275/144/276
f 254/141/282 253/142/282 273/143/282 276/144/282
f 247/141/284 246/142/284 274/143/284 277/144/284
f 262/141/278 261/142/278 275/143/278 278/144/278
f 255/141/286 254/142/286 276/143/286 279/144/286
f 248/141/288 247/142/288 277/143/288 280/144/288
f 263/141/281 262/142/281 278/143/281 281/144/281
f 249/141/269 248/142/269 280/143/269 282/144/269
f 264/141/285 263/142/285 281/143/285 283/144/285
f 257/141/287 256/142/287 284/143/287 285/144/287
f 250/141/271 249/142/271 282/143/271 286/144/271
f 265/141/293 264/142/293 283/143/293 269/144/293
f 258/141/294 257/142/294 285/143/294 287/144/294
f 251/141/274 250/142/274 286/143/274 288/144/274
f 266/141/270 265/142/270 269/143/270 268/144/270
f 220/141/275 245/142/275 267/143/275 221/144/275
f 252/141/277 251/142/277 288/143/277 272/144/277
f 245/141/272 266/142/272 268/143/272 267/144/272
f 268/232/267 269/233/267 267/234/267
f 283/235/267 281/236/267 269/233/267
f 278/237/267 275/238/267 281/236/267
f 275/238/267 271/239/267 270/240/267
f 270/240/267 287/241/267 285/242/267
f 279/243/267 276/244/267 273/245/267
f 273/245/267 272/246/267 288/247/267
f 288/247/267 286/248/267 282/249/267
f 280/250/267 277/251/267 282/249/267
f 274/252/267 222/253/267 277/251/267
f 269/233/267 281/236/267 267/234/267
f 221/254/267 267/234/267 222/253/267
f 222/253/267 267/234/267 277/251/267
f 275/238/267 270/240/267 281/236/267
f 279/243/267 273/245/267 288/247/267
f 281/236/267 279/243/267 277/251/267
f 277/251/267 288/247/267 282/249/267
f 279/243/267 288/247/267 277/251/267
f 118/255/290 124/231/290 80/256/290
f 80/256/290 144/257/290 81/258/290
f 130/259/290 134/260/290 144/257/290
f 120/261/290 126/262/290 130/259/290
f 111/263/290 110/264/290 120/261/290
f 136/265/290 146/266/290 111/263/290
f 107/267/290 106/268/290 136/265/290
f 122/269/290 107/267/290 114/270/290
f 115/271/290 114/270/290 148/272/290
f 140/273/290 148/272/290 141/274/290
f 124/231/290 144/257/290 80/256/290
f 138/275/290 141/274/290 132/230/290
f 132/230/290 141/274/290 124/231/290
f 120/261/290 130/259/290 144/257/290
f 136/265/290 111/263/290 120/261/290
f 114/270/290 107/267/290 136/265/290
f 148/272/290 114/270/290 141/274/290
f 136/265/290 120/261/290 144/257/290
f 124/231/290 141/274/290 144/257/290
f 114/270/290 136/265/290 141/274/290
f 141/274/290 136/265/290 144/257/290
f 267/234/267 281/236/267 277/251/267
f 256/141/283 255/142/283 279/143/283 284/144/283
f 285/242/267 284/276/267 279/243/267
f 270/240/267 285/242/267 279/243/267
f 281/236/267 270/240/267 279/243/267
