# Blender 4.0.2
# www.blender.org
mtllib icbm.mtl
o ICBM
v 0.000000 0.900000 -0.648306
v 0.000000 1.000000 -0.750000
v 0.126478 0.900000 -0.635849
v 0.146318 1.000000 -0.735589
v 0.248096 0.900000 -0.598957
v 0.287013 1.000000 -0.692910
v 0.360180 0.900000 -0.539047
v 0.416678 1.000000 -0.623602
v 0.458422 0.900000 -0.458422
v 0.530330 1.000000 -0.530330
v 0.539047 0.900000 -0.360180
v 0.623602 1.000000 -0.416678
v 0.598957 0.900000 -0.248096
v 0.692910 1.000000 -0.287013
v 0.635849 0.900000 -0.126478
v 0.735589 1.000000 -0.146318
v 0.648306 0.900000 0.000000
v 0.750000 1.000000 0.000000
v 0.635849 0.900000 0.126478
v 0.735589 1.000000 0.146318
v 0.598957 0.900000 0.248096
v 0.692910 1.000000 0.287013
v 0.539047 0.900000 0.360180
v 0.623602 1.000000 0.416678
v 0.458422 0.900000 0.458422
v 0.530330 1.000000 0.530330
v 0.360180 0.900000 0.539047
v 0.416678 1.000000 0.623602
v 0.248096 0.900000 0.598957
v 0.287013 1.000000 0.692910
v 0.126478 0.900000 0.635849
v 0.146318 1.000000 0.735589
v 0.000000 0.900000 0.648306
v 0.000000 1.000000 0.750000
v -0.126478 0.900000 0.635849
v -0.146318 1.000000 0.735589
v -0.248096 0.900000 0.598957
v -0.287013 1.000000 0.692910
v -0.360180 0.900000 0.539047
v -0.416678 1.000000 0.623602
v -0.458422 0.900000 0.458422
v -0.530330 1.000000 0.530330
v -0.539047 0.900000 0.360180
v -0.623602 1.000000 0.416678
v -0.598957 0.900000 0.248096
v -0.692910 1.000000 0.287013
v -0.635849 0.900000 0.126478
v -0.735589 1.000000 0.146318
v -0.648306 0.900000 0.000000
v -0.750000 1.000000 0.000000
v -0.635849 0.900000 -0.126478
v -0.735589 1.000000 -0.146318
v -0.598957 0.900000 -0.248096
v -0.692910 1.000000 -0.287013
v -0.539047 0.900000 -0.360180
v -0.623602 1.000000 -0.416678
v -0.458422 0.900000 -0.458422
v -0.530330 1.000000 -0.530330
v -0.360180 0.900000 -0.539047
v -0.416678 1.000000 -0.623602
v -0.248096 0.900000 -0.598957
v -0.287013 1.000000 -0.692910
v -0.126478 0.900000 -0.635849
v -0.146318 1.000000 -0.735589
v 0.000000 0.000000 -1.000000
v 0.195090 0.000000 -0.980785
v 0.382683 0.000000 -0.923880
v 0.555570 0.000000 -0.831470
v 0.707107 0.000000 -0.707107
v 0.831470 0.000000 -0.555570
v 0.923880 0.000000 -0.382683
v 0.980785 0.000000 -0.195090
v 1.000000 0.000000 0.000000
v 0.980785 0.000000 0.195090
v 0.923880 0.000000 0.382683
v 0.831470 0.000000 0.555570
v 0.707107 0.000000 0.707107
v 0.555570 0.000000 0.831470
v 0.382683 0.000000 0.923880
v 0.195090 0.000000 0.980785
v 0.000000 0.000000 1.000000
v -0.195090 0.000000 0.980785
v -0.382683 0.000000 0.923880
v -0.555570 0.000000 0.831470
v -0.707107 0.000000 0.707107
v -0.831470 0.000000 0.555570
v -0.923880 0.000000 0.382683
v -0.980785 0.000000 0.195090
v -1.000000 0.000000 0.000000
v -0.980785 0.000000 -0.195090
v -0.923880 0.000000 -0.382683
v -0.831470 0.000000 -0.555570
v -0.707107 0.000000 -0.707107
v -0.555570 0.000000 -0.831470
v -0.382683 0.000000 -0.923880
v -0.195090 0.000000 -0.980785
v 0.000000 0.000000 -0.899516
v 0.175487 0.000000 -0.882232
v 0.344230 0.000000 -0.831045
v 0.499744 0.000000 -0.747920
v 0.636054 0.000000 -0.636054
v 0.747920 0.000000 -0.499744
v 0.831045 0.000000 -0.344230
v 0.882232 0.000000 -0.175487
v 0.899516 0.000000 0.000000
v 0.882232 0.000000 0.175487
v 0.831045 0.000000 0.344230
v 0.747920 0.000000 0.499744
v 0.636054 0.000000 0.636054
v 0.499744 0.000000 0.747920
v 0.344230 0.000000 0.831045
v 0.175487 0.000000 0.882232
v 0.000000 0.000000 0.899516
v -0.175487 0.000000 0.882232
v -0.344230 0.000000 0.831045
v -0.499744 0.000000 0.747920
v -0.636054 0.000000 0.636054
v -0.747920 0.000000 0.499744
v -0.831045 0.000000 0.344230
v -0.882232 0.000000 0.175487
v -0.899516 0.000000 0.000000
v -0.882232 0.000000 -0.175487
v -0.831045 0.000000 -0.344230
v -0.747920 0.000000 -0.499744
v -0.636054 0.000000 -0.636054
v -0.499744 0.000000 -0.747920
v -0.344230 0.000000 -0.831045
v -0.175487 0.000000 -0.882232
v 0.000000 1.000000 -1.000000
v 0.000000 2.000000 -1.000000
v 0.195090 1.000000 -0.980785
v 0.195090 2.000000 -0.980785
v 0.382683 1.000000 -0.923880
v 0.382683 2.000000 -0.923880
v 0.555570 1.000000 -0.831470
v 0.555570 2.000000 -0.831470
v 0.707107 1.000000 -0.707107
v 0.707107 2.000000 -0.707107
v 0.831470 1.000000 -0.555570
v 0.831470 2.000000 -0.555570
v 0.923880 1.000000 -0.382683
v 0.923880 2.000000 -0.382683
v 0.980785 1.000000 -0.195090
v 0.980785 2.000000 -0.195090
v 1.000000 1.000000 0.000000
v 1.000000 2.000000 0.000000
v 0.980785 1.000000 0.195090
v 0.980785 2.000000 0.195090
v 0.923880 1.000000 0.382683
v 0.923880 2.000000 0.382683
v 0.831470 1.000000 0.555570
v 0.831470 2.000000 0.555570
v 0.707107 1.000000 0.707107
v 0.707107 2.000000 0.707107
v 0.555570 1.000000 0.831470
v 0.555570 2.000000 0.831470
v 0.382683 1.000000 0.923880
v 0.382683 2.000000 0.923880
v 0.195090 1.000000 0.980785
v 0.195090 2.000000 0.980785
v 0.000000 1.000000 1.000000
v 0.000000 2.000000 1.000000
v -0.195090 1.000000 0.980785
v -0.195090 2.000000 0.980785
v -0.382683 1.000000 0.923880
v -0.382683 2.000000 0.923880
v -0.555570 1.000000 0.831470
v -0.555570 2.000000 0.831470
v -0.707107 1.000000 0.707107
v -0.707107 2.000000 0.707107
v -0.831470 1.000000 0.555570
v -0.831470 2.000000 0.555570
v -0.923880 1.000000 0.382683
v -0.923880 2.000000 0.382683
v -0.980785 1.000000 0.195090
v -0.980785 2.000000 0.195090
v -1.000000 1.000000 0.000000
v -1.000000 2.000000 0.000000
v -0.980785 1.000000 -0.195090
v -0.980785 2.000000 -0.195090
v -0.923880 1.000000 -0.382683
v -0.923880 2.000000 -0.382683
v -0.831470 1.000000 -0.555570
v -0.831470 2.000000 -0.555570
v -0.707107 1.000000 -0.707107
v -0.707107 2.000000 -0.707107
v -0.555570 1.000000 -0.831470
v -0.555570 2.000000 -0.831470
v -0.382683 1.000000 -0.923880
v -0.382683 2.000000 -0.923880
v -0.195090 1.000000 -0.980785
v -0.195090 2.000000 -0.980785
v 0.000000 35.000000 0.000000
v 0.000000 2.000000 -1.500000
v 0.000000 30.000000 -1.500000
v 0.292636 2.000000 -1.471178
v 0.292636 30.000000 -1.471178
v 0.574025 2.000000 -1.385819
v 0.574025 30.000000 -1.385819
v 0.833355 2.000000 -1.247204
v 0.833355 30.000000 -1.247204
v 1.060660 2.000000 -1.060660
v 1.060660 30.000000 -1.060660
v 1.247204 2.000000 -0.833355
v 1.247204 30.000000 -0.833355
v 1.385819 2.000000 -0.574025
v 1.385819 30.000000 -0.574025
v 1.471178 2.000000 -0.292636
v 1.471178 30.000000 -0.292636
v 1.500000 2.000000 0.000000
v 1.500000 30.000000 0.000000
v 1.471178 2.000000 0.292636
v 1.471178 30.000000 0.292636
v 1.385819 2.000000 0.574025
v 1.385819 30.000000 0.574025
v 1.247204 2.000000 0.833355
v 1.247204 30.000000 0.833355
v 1.060660 2.000000 1.060660
v 1.060660 30.000000 1.060660
v 0.833355 2.000000 1.247204
v 0.833355 30.000000 1.247204
v 0.574025 2.000000 1.385819
v 0.574025 30.000000 1.385819
v 0.292636 2.000000 1.471178
v 0.292636 30.000000 1.471178
v 0.000000 2.000000 1.500000
v 0.000000 30.000000 1.500000
v -0.292636 2.000000 1.471178
v -0.292636 30.000000 1.471178
v -0.574025 2.000000 1.385819
v -0.574025 30.000000 1.385819
v -0.833355 2.000000 1.247204
v -0.833355 30.000000 1.247204
v -1.060660 2.000000 1.060660
v -1.060660 30.000000 1.060660
v -1.247204 2.000000 0.833355
v -1.247204 30.000000 0.833355
v -1.385819 2.000000 0.574025
v -1.385819 30.000000 0.574025
v -1.471178 2.000000 0.292636
v -1.471178 30.000000 0.292636
v -1.500000 2.000000 0.000000
v -1.500000 30.000000 0.000000
v -1.471178 2.000000 -0.292636
v -1.471178 30.000000 -0.292636
v -1.385819 2.000000 -0.574025
v -1.385819 30.000000 -0.574025
v -1.247204 2.000000 -0.833355
v -1.247204 30.000000 -0.833355
v -1.060660 2.000000 -1.060660
v -1.060660 30.000000 -1.060660
v -0.833355 2.000000 -1.247204
v -0.833355 30.000000 -1.247204
v -0.574025 2.000000 -1.385819
v -0.574025 30.000000 -1.385819
v -0.292636 2.000000 -1.471178
v -0.292636 30.000000 -1.471178
vn 0.0951 0.2414 -0.9657
vn 0.2817 0.2414 -0.9286
vn 0.4575 0.2414 -0.8558
vn 0.6156 0.2414 -0.7501
vn 0.7501 0.2414 -0.6156
vn 0.8558 0.2414 -0.4575
vn 0.9286 0.2414 -0.2817
vn 0.9657 0.2414 -0.0951
vn 0.9657 0.2414 0.0951
vn 0.9286 0.2414 0.2817
vn 0.8558 0.2414 0.4575
vn 0.7501 0.2414 0.6156
vn 0.6156 0.2414 0.7501
vn 0.4575 0.2414 0.8558
vn 0.2817 0.2414 0.9286
vn 0.0951 0.2414 0.9657
vn -0.0951 0.2414 0.9657
vn -0.2817 0.2414 0.9286
vn -0.4575 0.2414 0.8558
vn -0.6156 0.2414 0.7501
vn -0.7501 0.2414 0.6156
vn -0.8558 0.2414 0.4575
vn -0.9286 0.2414 0.2817
vn -0.9657 0.2414 0.0951
vn -0.9657 0.2414 -0.0951
vn -0.9286 0.2414 -0.2817
vn -0.8558 0.2414 -0.4575
vn -0.7501 0.2414 -0.6156
vn -0.6156 0.2414 -0.7501
vn -0.4575 0.2414 -0.8558
vn -0.2817 0.2414 -0.9286
vn -0.0951 0.2414 -0.9657
vn -0.0000 -1.0000 -0.0000
vn -0.0944 -0.2676 0.9589
vn -0.2797 -0.2676 0.9220
vn -0.4542 -0.2676 0.8497
vn -0.6112 -0.2676 0.7448
vn -0.7448 -0.2676 0.6112
vn -0.8497 -0.2676 0.4542
vn -0.9220 -0.2676 0.2797
vn -0.9589 -0.2676 0.0944
vn -0.9589 -0.2676 -0.0944
vn -0.9220 -0.2676 -0.2797
vn -0.8497 -0.2676 -0.4542
vn -0.7448 -0.2676 -0.6112
vn -0.6112 -0.2676 -0.7448
vn -0.4542 -0.2676 -0.8497
vn -0.2797 -0.2676 -0.9220
vn -0.0944 -0.2676 -0.9589
vn 0.0944 -0.2676 -0.9589
vn 0.2797 -0.2676 -0.9220
vn 0.4542 -0.2676 -0.8497
vn 0.6112 -0.2676 -0.7448
vn 0.7448 -0.2676 -0.6112
vn 0.8497 -0.2676 -0.4542
vn 0.9220 -0.2676 -0.2797
vn 0.9589 -0.2676 -0.0944
vn 0.9589 -0.2676 0.0944
vn 0.9220 -0.2676 0.2797
vn 0.8497 -0.2676 0.4542
vn 0.7448 -0.2676 0.6112
vn 0.6112 -0.2676 0.7448
vn 0.4542 -0.2676 0.8497
vn 0.2797 -0.2676 0.9220
vn 0.0944 -0.2676 0.9589
vn 0.0980 -0.0000 -0.9952
vn 0.2903 -0.0000 -0.9569
vn 0.4714 -0.0000 -0.8819
vn 0.6344 -0.0000 -0.7730
vn 0.7730 -0.0000 -0.6344
vn 0.8819 -0.0000 -0.4714
vn 0.9569 -0.0000 -0.2903
vn 0.9952 -0.0000 -0.0980
vn 0.9952 -0.0000 0.0980
vn 0.9569 -0.0000 0.2903
vn 0.8819 -0.0000 0.4714
vn 0.7730 -0.0000 0.6344
vn 0.6344 -0.0000 0.7730
vn 0.4714 -0.0000 0.8819
vn 0.2903 -0.0000 0.9569
vn 0.0980 -0.0000 0.9952
vn -0.0980 -0.0000 0.9952
vn -0.2903 -0.0000 0.9569
vn -0.4714 -0.0000 0.8819
vn -0.6344 -0.0000 0.7730
vn -0.7730 -0.0000 0.6344
vn -0.8819 -0.0000 0.4714
vn -0.9569 -0.0000 0.2903
vn -0.9952 -0.0000 0.0980
vn -0.9952 -0.0000 -0.0980
vn -0.9569 -0.0000 -0.2903
vn -0.8819 -0.0000 -0.4714
vn -0.7730 -0.0000 -0.6344
vn -0.6344 -0.0000 -0.7730
vn -0.4714 -0.0000 -0.8819
vn -0.2903 -0.0000 -0.9569
vn -0.0980 -0.0000 -0.9952
vn -0.0939 0.2861 -0.9536
vn -0.2782 0.2861 -0.9169
vn -0.4517 0.2861 -0.8451
vn -0.6079 0.2861 -0.7407
vn -0.7407 0.2861 -0.6079
vn -0.8451 0.2861 -0.4517
vn -0.9169 0.2861 -0.2782
vn -0.9536 0.2861 -0.0939
vn -0.9536 0.2861 0.0939
vn -0.9169 0.2861 0.2782
vn -0.8451 0.2861 0.4517
vn -0.7407 0.2861 0.6079
vn -0.6079 0.2861 0.7407
vn -0.4517 0.2861 0.8451
vn -0.2782 0.2861 0.9169
vn -0.0939 0.2861 0.9536
vn 0.0939 0.2861 0.9536
vn 0.2782 0.2861 0.9169
vn 0.4517 0.2861 0.8451
vn 0.6079 0.2861 0.7407
vn 0.7407 0.2861 0.6079
vn 0.8451 0.2861 0.4517
vn 0.9169 0.2861 0.2782
vn 0.9536 0.2861 0.0939
vn 0.9536 0.2861 -0.0939
vn 0.9169 0.2861 -0.2782
vn 0.8451 0.2861 -0.4517
vn 0.7407 0.2861 -0.6079
vn 0.6079 0.2861 -0.7407
vn 0.4517 0.2861 -0.8451
vn 0.2782 0.2861 -0.9169
vn 0.0939 0.2861 -0.9536
vn -0.7448 -0.2676 0.6113
vn 0.7448 -0.2676 -0.6113
vt 0.235691 0.171504
vt 0.266358 0.166731
vt 0.266326 0.172660
vt 0.235715 0.167057
vt 0.266326 0.160866
vt 0.235691 0.162658
vt 0.266232 0.155291
vt 0.235620 0.158477
vt 0.266078 0.150219
vt 0.235505 0.154673
vt 0.265871 0.145847
vt 0.235349 0.151394
vt 0.265619 0.142341
vt 0.235160 0.148765
vt 0.265331 0.139837
vt 0.234711 0.145832
vt 0.265019 0.138431
vt 0.264695 0.138176
vt 0.234467 0.251435
vt 0.265019 0.258177
vt 0.264695 0.259084
vt 0.234711 0.250755
vt 0.265331 0.256143
vt 0.234945 0.249229
vt 0.265619 0.253060
vt 0.235160 0.246918
vt 0.265871 0.249048
vt 0.235349 0.243908
vt 0.266078 0.244259
vt 0.235505 0.240317
vt 0.266232 0.238879
vt 0.235691 0.231957
vt 0.266326 0.233113
vt 0.266358 0.227184
vt 0.235715 0.227510
vt 0.266326 0.221320
vt 0.235691 0.223112
vt 0.266232 0.215744
vt 0.235620 0.218930
vt 0.266078 0.210673
vt 0.235505 0.215127
vt 0.265871 0.206301
vt 0.235349 0.211848
vt 0.265619 0.202795
vt 0.235160 0.209218
vt 0.265331 0.200291
vt 0.234711 0.206286
vt 0.265019 0.198885
vt 0.264695 0.198630
vt 0.234467 0.190981
vt 0.265019 0.197723
vt 0.234711 0.190301
vt 0.265331 0.195689
vt 0.234945 0.188776
vt 0.265619 0.192607
vt 0.235160 0.186464
vt 0.265871 0.188594
vt 0.235349 0.183454
vt 0.266078 0.183806
vt 0.235505 0.179863
vt 0.266232 0.178425
vt 0.351819 0.129836
vt 0.354539 0.157458
vt 0.326917 0.160179
vt 0.318318 0.162282
vt 0.312669 0.159278
vt 0.315352 0.157844
vt 0.310398 0.153795
vt 0.313309 0.152912
vt 0.309240 0.147974
vt 0.312268 0.147676
vt 0.309240 0.142040
vt 0.312268 0.142338
vt 0.310398 0.136219
vt 0.313309 0.137102
vt 0.312669 0.130736
vt 0.315352 0.132170
vt 0.315966 0.125802
vt 0.318318 0.127732
vt 0.320163 0.121606
vt 0.322093 0.123957
vt 0.325097 0.118309
vt 0.326531 0.120991
vt 0.330580 0.116037
vt 0.331463 0.118948
vt 0.336401 0.114880
vt 0.336699 0.117907
vt 0.342335 0.114880
vt 0.342037 0.117907
vt 0.348156 0.116037
vt 0.347273 0.118948
vt 0.353639 0.118309
vt 0.352205 0.120991
vt 0.358573 0.121606
vt 0.356643 0.123957
vt 0.362769 0.125802
vt 0.360418 0.127732
vt 0.366067 0.130736
vt 0.363384 0.132170
vt 0.368338 0.136219
vt 0.365427 0.137102
vt 0.369495 0.142040
vt 0.366468 0.142338
vt 0.369495 0.147974
vt 0.366468 0.147676
vt 0.368338 0.153795
vt 0.365427 0.152912
vt 0.366067 0.159278
vt 0.363384 0.157844
vt 0.362769 0.164212
vt 0.360418 0.162282
vt 0.358573 0.168409
vt 0.356643 0.166057
vt 0.353639 0.171706
vt 0.352205 0.169023
vt 0.348156 0.173977
vt 0.347273 0.171066
vt 0.342335 0.175135
vt 0.342037 0.172107
vt 0.336401 0.175135
vt 0.336699 0.172107
vt 0.330580 0.173977
vt 0.331463 0.171066
vt 0.325097 0.171706
vt 0.326531 0.169023
vt 0.320163 0.168409
vt 0.322093 0.166057
vt 0.315966 0.164212
vt 0.262311 0.283628
vt 0.235521 0.288603
vt 0.235521 0.283270
vt 0.235464 0.277994
vt 0.262269 0.279826
vt 0.235352 0.272980
vt 0.262188 0.276212
vt 0.235189 0.268419
vt 0.262071 0.272925
vt 0.234982 0.264487
vt 0.261922 0.270091
vt 0.234738 0.261335
vt 0.261746 0.267819
vt 0.234467 0.259084
vt 0.261551 0.266197
vt 0.326917 0.129836
vt 0.330116 0.127698
vt 0.333671 0.126226
vt 0.261551 0.355795
vt 0.234738 0.361393
vt 0.261746 0.354475
vt 0.234982 0.358619
vt 0.261922 0.352476
vt 0.235189 0.355008
vt 0.262071 0.349874
vt 0.235352 0.350700
vt 0.262188 0.346769
vt 0.235464 0.345860
vt 0.262269 0.343280
vt 0.262311 0.339542
vt 0.235521 0.340673
vt 0.262311 0.335698
vt 0.235521 0.335340
vt 0.235464 0.330064
vt 0.262269 0.331896
vt 0.235352 0.325050
vt 0.262188 0.328282
vt 0.235189 0.320489
vt 0.262071 0.324995
vt 0.234982 0.316557
vt 0.261922 0.322161
vt 0.234738 0.313405
vt 0.261746 0.319889
vt 0.234467 0.311154
vt 0.261551 0.318267
vt 0.351819 0.160179
vt 0.348620 0.162316
vt 0.345065 0.163788
vt 0.261551 0.303725
vt 0.234738 0.309323
vt 0.261746 0.302406
vt 0.234982 0.306549
vt 0.261922 0.300406
vt 0.235189 0.302938
vt 0.262071 0.297804
vt 0.235352 0.298630
vt 0.262188 0.294699
vt 0.235464 0.293790
vt 0.262269 0.291210
vt 0.262311 0.287472
vt 0.236099 0.051568
vt 0.266358 0.045731
vt 0.266326 0.051660
vt 0.236131 0.045639
vt 0.266326 0.039866
vt 0.236099 0.039774
vt 0.266232 0.034291
vt 0.236004 0.034199
vt 0.266078 0.029220
vt 0.235850 0.029128
vt 0.265871 0.024847
vt 0.235643 0.024755
vt 0.265619 0.021342
vt 0.235391 0.021250
vt 0.265331 0.018838
vt 0.235104 0.018746
vt 0.265019 0.017431
vt 0.234792 0.017339
vt 0.264695 0.017177
vt 0.234467 0.138084
vt 0.265019 0.137269
vt 0.264695 0.138176
vt 0.234792 0.137177
vt 0.265331 0.135235
vt 0.235104 0.135143
vt 0.265619 0.132153
vt 0.235391 0.132061
vt 0.265871 0.128140
vt 0.235643 0.128048
vt 0.266078 0.123352
vt 0.235850 0.123260
vt 0.266232 0.117972
vt 0.236004 0.117880
vt 0.266326 0.112206
vt 0.236099 0.112114
vt 0.266358 0.106277
vt 0.236131 0.106185
vt 0.266326 0.100412
vt 0.236099 0.100320
vt 0.266232 0.094837
vt 0.236004 0.094745
vt 0.266078 0.089766
vt 0.235850 0.089674
vt 0.265871 0.085393
vt 0.235643 0.085301
vt 0.265619 0.081888
vt 0.235391 0.081796
vt 0.265331 0.079383
vt 0.235104 0.079291
vt 0.265019 0.077977
vt 0.234792 0.077885
vt 0.264695 0.077723
vt 0.234467 0.077539
vt 0.265019 0.076724
vt 0.264695 0.077631
vt 0.234792 0.076631
vt 0.265331 0.074690
vt 0.235104 0.074598
vt 0.265619 0.071607
vt 0.235391 0.071515
vt 0.265871 0.067595
vt 0.235643 0.067503
vt 0.266078 0.062806
vt 0.235850 0.062714
vt 0.266232 0.057426
vt 0.236004 0.057334
vt 0.038963 0.153605
vt 0.047857 1.000000
vt 0.038963 0.999979
vt 0.047857 0.153626
vt 0.056654 0.999925
vt 0.056654 0.153551
vt 0.065016 0.999758
vt 0.065016 0.153384
vt 0.072622 0.999504
vt 0.072622 0.153130
vt 0.079180 0.999174
vt 0.079180 0.152800
vt 0.084437 0.998780
vt 0.084437 0.152405
vt 0.088192 0.998337
vt 0.088192 0.151963
vt 0.090300 0.997862
vt 0.090300 0.151488
vt 0.090680 0.997374
vt 0.090680 0.151276
vt 0.092042 0.998133
vt 0.090680 0.997651
vt 0.092042 0.151759
vt 0.095094 0.998592
vt 0.095094 0.152218
vt 0.099719 0.999009
vt 0.099719 0.152635
vt 0.105739 0.999369
vt 0.105739 0.152995
vt 0.112923 0.999657
vt 0.112923 0.153283
vt 0.120994 0.999863
vt 0.120994 0.153489
vt 0.129643 0.999979
vt 0.129643 0.153605
vt 0.138537 1.000000
vt 0.138537 0.153626
vt 0.147334 0.999925
vt 0.147334 0.153551
vt 0.155696 0.999758
vt 0.155696 0.153384
vt 0.163302 0.999504
vt 0.163302 0.153130
vt 0.169860 0.999174
vt 0.169860 0.152800
vt 0.175117 0.998780
vt 0.175117 0.152405
vt 0.178872 0.998337
vt 0.178872 0.151963
vt 0.180980 0.997862
vt 0.180980 0.151488
vt 0.181360 0.997374
vt 0.000000 0.151276
vt 0.001362 0.998133
vt 0.000000 0.997651
vt 0.001362 0.151759
vt 0.004414 0.998592
vt 0.004414 0.152218
vt 0.009039 0.999009
vt 0.009039 0.152635
vt 0.015059 0.999369
vt 0.015059 0.152995
vt 0.022243 0.999657
vt 0.022243 0.153283
vt 0.030314 0.999863
vt 0.030314 0.153489
vt 0.045340 0.000000
vt 0.136020 0.000000
vt 0.181360 0.151000
vt 0.090680 0.151000
vt 0.325462 0.078476
vt 0.309240 0.074139
vt 0.324304 0.072656
vt 0.327733 0.083959
vt 0.310977 0.082870
vt 0.319329 0.098496
vt 0.314384 0.091095
vt 0.335226 0.093090
vt 0.331030 0.088894
vt 0.340161 0.096387
vt 0.325624 0.104791
vt 0.341250 0.113143
vt 0.333026 0.109736
vt 0.351464 0.099816
vt 0.345644 0.098658
vt 0.357399 0.099816
vt 0.349981 0.114880
vt 0.363219 0.098658
vt 0.358883 0.114880
vt 0.368702 0.096387
vt 0.367613 0.113143
vt 0.383239 0.104791
vt 0.375838 0.109736
vt 0.377833 0.088894
vt 0.373637 0.093090
vt 0.381130 0.083959
vt 0.389534 0.098496
vt 0.397886 0.082870
vt 0.394480 0.091095
vt 0.384559 0.072656
vt 0.383401 0.078476
vt 0.384559 0.066721
vt 0.399623 0.074139
vt 0.383401 0.060901
vt 0.399623 0.065238
vt 0.381130 0.055418
vt 0.397886 0.056507
vt 0.389534 0.040881
vt 0.394480 0.048282
vt 0.373637 0.046287
vt 0.377833 0.050483
vt 0.368702 0.042990
vt 0.383239 0.034586
vt 0.367613 0.026234
vt 0.375838 0.029641
vt 0.357399 0.039561
vt 0.363219 0.040719
vt 0.351464 0.039561
vt 0.358883 0.024497
vt 0.345644 0.040719
vt 0.349981 0.024497
vt 0.340161 0.042990
vt 0.341250 0.026234
vt 0.325624 0.034586
vt 0.333026 0.029641
vt 0.331030 0.050483
vt 0.335227 0.046287
vt 0.327733 0.055418
vt 0.319329 0.040881
vt 0.310977 0.056507
vt 0.314384 0.048282
vt 0.324304 0.066721
vt 0.325462 0.060901
vt 0.309240 0.065238
vt 0.319344 0.194559
vt 0.315966 0.186057
vt 0.321817 0.190858
vt 0.317641 0.198671
vt 0.312669 0.190991
vt 0.309240 0.202295
vt 0.310398 0.196474
vt 0.316772 0.207488
vt 0.316772 0.203037
vt 0.310398 0.214050
vt 0.309240 0.208229
vt 0.317641 0.211853
vt 0.312669 0.219533
vt 0.321817 0.219666
vt 0.319344 0.215965
vt 0.320163 0.228664
vt 0.315966 0.224467
vt 0.328665 0.225286
vt 0.324964 0.222813
vt 0.332777 0.226989
vt 0.325097 0.231961
vt 0.336401 0.235390
vt 0.330580 0.234232
vt 0.341593 0.227858
vt 0.337142 0.227858
vt 0.348156 0.234232
vt 0.342335 0.235390
vt 0.345959 0.226989
vt 0.353639 0.231961
vt 0.353772 0.222813
vt 0.350071 0.225286
vt 0.362769 0.224467
vt 0.358573 0.228664
vt 0.359392 0.215965
vt 0.356919 0.219666
vt 0.361095 0.211853
vt 0.366067 0.219533
vt 0.369495 0.208229
vt 0.368338 0.214050
vt 0.361964 0.203037
vt 0.361964 0.207488
vt 0.368338 0.196474
vt 0.369495 0.202295
vt 0.361095 0.198671
vt 0.366067 0.190991
vt 0.356919 0.190858
vt 0.359392 0.194559
vt 0.358573 0.181861
vt 0.362769 0.186057
vt 0.350071 0.185238
vt 0.353772 0.187711
vt 0.345959 0.183535
vt 0.353639 0.178564
vt 0.342335 0.175135
vt 0.348156 0.176292
vt 0.337142 0.182667
vt 0.341593 0.182667
vt 0.330580 0.176292
vt 0.336401 0.175135
vt 0.332777 0.183535
vt 0.325097 0.178564
vt 0.324964 0.187711
vt 0.328665 0.185238
vt 0.320163 0.181861
vt 0.234945 0.146887
vt 0.234467 0.145641
vt 0.235620 0.236281
vt 0.234945 0.207340
vt 0.234467 0.206095
vt 0.235620 0.175828
vt 0.324197 0.157458
vt 0.322059 0.154259
vt 0.320587 0.150704
vt 0.319836 0.146931
vt 0.319836 0.143083
vt 0.320587 0.139310
vt 0.322059 0.135755
vt 0.324197 0.132556
vt 0.337444 0.125475
vt 0.341292 0.125475
vt 0.345065 0.126226
vt 0.348620 0.127698
vt 0.354539 0.132556
vt 0.356677 0.135755
vt 0.358149 0.139310
vt 0.358900 0.143083
vt 0.358900 0.146931
vt 0.358149 0.150704
vt 0.356677 0.154259
vt 0.341292 0.164539
vt 0.337444 0.164539
vt 0.333671 0.163788
vt 0.330116 0.162316
vt 0.234467 0.363224
vt 0.234467 0.311154
vt 0.234467 0.017085
vt 0.234467 0.077631
s 0
usemtl Material
f 2/1/1 66/2/1 65/3/1
f 4/4/2 67/5/2 66/2/2
f 6/6/3 68/7/3 67/5/3
f 8/8/4 69/9/4 68/7/4
f 10/10/5 70/11/5 69/9/5
f 12/12/6 71/13/6 70/11/6
f 14/14/7 72/15/7 71/13/7
f 72/15/8 18/16/8 73/17/8
f 18/16/9 74/18/9 73/17/9
f 20/19/10 75/20/10 74/21/10
f 22/22/11 76/23/11 75/20/11
f 24/24/12 77/25/12 76/23/12
f 26/26/13 78/27/13 77/25/13
f 28/28/14 79/29/14 78/27/14
f 30/30/15 80/31/15 79/29/15
f 80/31/16 34/32/16 81/33/16
f 34/32/17 82/34/17 81/33/17
f 36/35/18 83/36/18 82/34/18
f 38/37/19 84/38/19 83/36/19
f 40/39/20 85/40/20 84/38/20
f 42/41/21 86/42/21 85/40/21
f 44/43/22 87/44/22 86/42/22
f 46/45/23 88/46/23 87/44/23
f 88/46/24 50/47/24 89/48/24
f 50/47/25 90/49/25 89/48/25
f 52/50/26 91/51/26 90/49/26
f 54/52/27 92/53/27 91/51/27
f 56/54/28 93/55/28 92/53/28
f 58/56/29 94/57/29 93/55/29
f 60/58/30 95/59/30 94/57/30
f 62/60/31 96/61/31 95/59/31
f 96/61/32 2/1/32 65/3/32
f 31/62/33 47/63/33 63/64/33
f 97/65/33 66/66/33 98/67/33
f 98/67/33 67/68/33 99/69/33
f 99/69/33 68/70/33 100/71/33
f 100/71/33 69/72/33 101/73/33
f 101/73/33 70/74/33 102/75/33
f 102/75/33 71/76/33 103/77/33
f 103/77/33 72/78/33 104/79/33
f 104/79/33 73/80/33 105/81/33
f 105/81/33 74/82/33 106/83/33
f 106/83/33 75/84/33 107/85/33
f 107/85/33 76/86/33 108/87/33
f 108/87/33 77/88/33 109/89/33
f 109/89/33 78/90/33 110/91/33
f 110/91/33 79/92/33 111/93/33
f 111/93/33 80/94/33 112/95/33
f 112/95/33 81/96/33 113/97/33
f 113/97/33 82/98/33 114/99/33
f 114/99/33 83/100/33 115/101/33
f 115/101/33 84/102/33 116/103/33
f 116/103/33 85/104/33 117/105/33
f 117/105/33 86/106/33 118/107/33
f 118/107/33 87/108/33 119/109/33
f 119/109/33 88/110/33 120/111/33
f 120/111/33 89/112/33 121/113/33
f 121/113/33 90/114/33 122/115/33
f 122/115/33 91/116/33 123/117/33
f 123/117/33 92/118/33 124/119/33
f 124/119/33 93/120/33 125/121/33
f 125/121/33 94/122/33 126/123/33
f 126/123/33 95/124/33 127/125/33
f 127/125/33 96/126/33 128/127/33
f 128/127/33 65/128/33 97/65/33
f 3/129/34 97/130/34 98/131/34
f 3/129/35 99/132/35 5/133/35
f 5/133/36 100/134/36 7/135/36
f 7/135/37 101/136/37 9/137/37
f 9/137/38 102/138/38 11/139/38
f 11/139/39 103/140/39 13/141/39
f 13/141/40 104/142/40 15/143/40
f 17/144/41 104/79/41 105/81/41
f 19/145/42 105/81/42 106/83/42
f 19/145/43 107/85/43 21/146/43
f 21/147/44 108/148/44 23/149/44
f 23/149/45 109/150/45 25/151/45
f 25/151/46 110/152/46 27/153/46
f 27/153/47 111/154/47 29/155/47
f 29/155/48 112/156/48 31/157/48
f 33/158/49 112/156/49 113/159/49
f 35/160/50 113/159/50 114/161/50
f 35/160/51 115/162/51 37/163/51
f 37/163/52 116/164/52 39/165/52
f 39/165/53 117/166/53 41/167/53
f 41/167/54 118/168/54 43/169/54
f 43/169/55 119/170/55 45/171/55
f 45/171/56 120/172/56 47/173/56
f 49/174/57 120/111/57 121/113/57
f 51/175/58 121/113/58 122/115/58
f 51/175/59 123/117/59 53/176/59
f 53/177/60 124/178/60 55/179/60
f 55/179/61 125/180/61 57/181/61
f 57/181/62 126/182/62 59/183/62
f 59/183/63 127/184/63 61/185/63
f 61/185/64 128/186/64 63/187/64
f 1/188/65 128/186/65 97/130/65
f 130/189/66 131/190/66 129/191/66
f 132/192/67 133/193/67 131/190/67
f 134/194/68 135/195/68 133/193/68
f 136/196/69 137/197/69 135/195/69
f 138/198/70 139/199/70 137/197/70
f 140/200/71 141/201/71 139/199/71
f 142/202/72 143/203/72 141/201/72
f 144/204/73 145/205/73 143/203/73
f 146/206/74 147/207/74 145/205/74
f 148/208/75 149/209/75 147/210/75
f 150/211/76 151/212/76 149/209/76
f 152/213/77 153/214/77 151/212/77
f 154/215/78 155/216/78 153/214/78
f 156/217/79 157/218/79 155/216/79
f 158/219/80 159/220/80 157/218/80
f 160/221/81 161/222/81 159/220/81
f 162/223/82 163/224/82 161/222/82
f 164/225/83 165/226/83 163/224/83
f 166/227/84 167/228/84 165/226/84
f 168/229/85 169/230/85 167/228/85
f 170/231/86 171/232/86 169/230/86
f 172/233/87 173/234/87 171/232/87
f 174/235/88 175/236/88 173/234/88
f 176/237/89 177/238/89 175/236/89
f 178/239/90 179/240/90 177/238/90
f 180/241/91 181/242/91 179/243/91
f 182/244/92 183/245/92 181/242/92
f 184/246/93 185/247/93 183/245/93
f 186/248/94 187/249/94 185/247/94
f 188/250/95 189/251/95 187/249/95
f 190/252/96 191/253/96 189/251/96
f 192/254/97 129/191/97 191/253/97
f 195/255/66 196/256/66 194/257/66
f 197/258/67 198/259/67 196/256/67
f 199/260/68 200/261/68 198/259/68
f 201/262/69 202/263/69 200/261/69
f 203/264/70 204/265/70 202/263/70
f 205/266/71 206/267/71 204/265/71
f 207/268/72 208/269/72 206/267/72
f 209/270/73 210/271/73 208/269/73
f 211/272/74 212/273/74 210/271/74
f 213/274/75 214/275/75 212/276/75
f 215/277/76 216/278/76 214/275/76
f 217/279/77 218/280/77 216/278/77
f 219/281/78 220/282/78 218/280/78
f 221/283/79 222/284/79 220/282/79
f 223/285/80 224/286/80 222/284/80
f 225/287/81 226/288/81 224/286/81
f 227/289/82 228/290/82 226/288/82
f 229/291/83 230/292/83 228/290/83
f 231/293/84 232/294/84 230/292/84
f 233/295/85 234/296/85 232/294/85
f 235/297/86 236/298/86 234/296/86
f 237/299/87 238/300/87 236/298/87
f 239/301/88 240/302/88 238/300/88
f 241/303/89 242/304/89 240/302/89
f 243/305/90 244/306/90 242/304/90
f 245/307/91 246/308/91 244/309/91
f 247/310/92 248/311/92 246/308/92
f 249/312/93 250/313/93 248/311/93
f 251/314/94 252/315/94 250/313/94
f 253/316/95 254/317/95 252/315/95
f 255/318/96 256/319/96 254/317/96
f 257/320/97 194/257/97 256/319/97
f 193/321/98 195/255/98 257/320/98
f 257/320/99 255/318/99 193/321/99
f 253/316/100 193/321/100 255/318/100
f 251/314/101 193/321/101 253/316/101
f 249/312/102 193/321/102 251/314/102
f 247/310/103 193/321/103 249/312/103
f 245/307/104 193/321/104 247/310/104
f 243/305/105 193/322/105 245/323/105
f 241/303/106 193/322/106 243/305/106
f 239/301/107 193/322/107 241/303/107
f 237/299/108 193/322/108 239/301/108
f 235/297/109 193/322/109 237/299/109
f 233/295/110 193/322/110 235/297/110
f 231/293/111 193/322/111 233/295/111
f 229/291/112 193/322/112 231/293/112
f 227/289/113 193/322/113 229/291/113
f 225/287/114 193/322/114 227/289/114
f 223/285/115 193/322/115 225/287/115
f 221/283/116 193/322/116 223/285/116
f 219/281/117 193/322/117 221/283/117
f 217/279/118 193/322/118 219/281/118
f 215/277/119 193/322/119 217/279/119
f 213/274/120 193/322/120 215/277/120
f 211/272/121 193/321/121 213/324/121
f 209/270/122 193/321/122 211/272/122
f 207/268/123 193/321/123 209/270/123
f 205/266/124 193/321/124 207/268/124
f 203/264/125 193/321/125 205/266/125
f 201/262/126 193/321/126 203/264/126
f 199/260/127 193/321/127 201/262/127
f 197/258/128 193/321/128 199/260/128
f 195/255/129 193/321/129 197/258/129
f 132/325/33 198/326/33 134/327/33
f 130/328/33 196/329/33 132/325/33
f 130/328/33 256/330/33 194/331/33
f 190/332/33 256/330/33 192/333/33
f 188/334/33 254/335/33 190/332/33
f 188/334/33 250/336/33 252/337/33
f 184/338/33 250/336/33 186/339/33
f 182/340/33 248/341/33 184/338/33
f 180/342/33 246/343/33 182/340/33
f 178/344/33 244/345/33 180/342/33
f 178/344/33 240/346/33 242/347/33
f 174/348/33 240/346/33 176/349/33
f 172/350/33 238/351/33 174/348/33
f 172/350/33 234/352/33 236/353/33
f 168/354/33 234/352/33 170/355/33
f 166/356/33 232/357/33 168/354/33
f 164/358/33 230/359/33 166/356/33
f 162/360/33 228/361/33 164/358/33
f 162/360/33 224/362/33 226/363/33
f 158/364/33 224/362/33 160/365/33
f 156/366/33 222/367/33 158/364/33
f 156/366/33 218/368/33 220/369/33
f 152/370/33 218/368/33 154/371/33
f 150/372/33 216/373/33 152/370/33
f 148/374/33 214/375/33 150/372/33
f 146/376/33 212/377/33 148/374/33
f 146/376/33 208/378/33 210/379/33
f 142/380/33 208/378/33 144/381/33
f 140/382/33 206/383/33 142/380/33
f 140/382/33 202/384/33 204/385/33
f 136/386/33 202/384/33 138/387/33
f 134/327/33 200/388/33 136/386/33
f 14/389/33 143/390/33 16/391/33
f 12/392/33 141/393/33 14/389/33
f 12/392/33 137/394/33 139/395/33
f 8/396/33 137/394/33 10/397/33
f 8/396/33 133/398/33 135/399/33
f 6/400/33 131/401/33 133/398/33
f 2/402/33 131/401/33 4/403/33
f 2/402/33 191/404/33 129/405/33
f 62/406/33 191/404/33 64/407/33
f 60/408/33 189/409/33 62/406/33
f 60/408/33 185/410/33 187/411/33
f 56/412/33 185/410/33 58/413/33
f 56/412/33 181/414/33 183/415/33
f 54/416/33 179/417/33 181/414/33
f 50/418/33 179/417/33 52/419/33
f 50/418/33 175/420/33 177/421/33
f 46/422/33 175/420/33 48/423/33
f 44/424/33 173/425/33 46/422/33
f 44/424/33 169/426/33 171/427/33
f 40/428/33 169/426/33 42/429/33
f 40/428/33 165/430/33 167/431/33
f 38/432/33 163/433/33 165/430/33
f 34/434/33 163/433/33 36/435/33
f 34/434/33 159/436/33 161/437/33
f 30/438/33 159/436/33 32/439/33
f 28/440/33 157/441/33 30/438/33
f 28/440/33 153/442/33 155/443/33
f 24/444/33 153/442/33 26/445/33
f 24/444/33 149/446/33 151/447/33
f 22/448/33 147/449/33 149/446/33
f 18/450/33 147/449/33 20/451/33
f 18/450/33 143/390/33 145/452/33
f 2/1/1 4/4/1 66/2/1
f 4/4/2 6/6/2 67/5/2
f 6/6/3 8/8/3 68/7/3
f 8/8/4 10/10/4 69/9/4
f 10/10/5 12/12/5 70/11/5
f 12/12/6 14/14/6 71/13/6
f 14/14/7 16/453/7 72/15/7
f 72/15/8 16/453/8 18/16/8
f 18/16/9 20/454/9 74/18/9
f 20/19/10 22/22/10 75/20/10
f 22/22/11 24/24/11 76/23/11
f 24/24/12 26/26/12 77/25/12
f 26/26/13 28/28/13 78/27/13
f 28/28/14 30/30/14 79/29/14
f 30/30/15 32/455/15 80/31/15
f 80/31/16 32/455/16 34/32/16
f 34/32/17 36/35/17 82/34/17
f 36/35/18 38/37/18 83/36/18
f 38/37/19 40/39/19 84/38/19
f 40/39/20 42/41/20 85/40/20
f 42/41/21 44/43/21 86/42/21
f 44/43/22 46/45/22 87/44/22
f 46/45/23 48/456/23 88/46/23
f 88/46/24 48/456/24 50/47/24
f 50/47/25 52/457/25 90/49/25
f 52/50/26 54/52/26 91/51/26
f 54/52/27 56/54/27 92/53/27
f 56/54/28 58/56/28 93/55/28
f 58/56/29 60/58/29 94/57/29
f 60/58/30 62/60/30 95/59/30
f 62/60/31 64/458/31 96/61/31
f 96/61/32 64/458/32 2/1/32
f 63/64/33 1/459/33 3/460/33
f 3/460/33 5/461/33 7/462/33
f 7/462/33 9/463/33 11/464/33
f 11/464/33 13/465/33 15/466/33
f 15/466/33 17/144/33 19/145/33
f 19/145/33 21/146/33 23/467/33
f 23/467/33 25/468/33 27/469/33
f 27/469/33 29/470/33 31/62/33
f 31/62/33 33/471/33 35/472/33
f 35/472/33 37/473/33 39/474/33
f 39/474/33 41/475/33 43/476/33
f 43/476/33 45/477/33 47/63/33
f 47/63/33 49/174/33 51/175/33
f 51/175/33 53/176/33 55/478/33
f 55/478/33 57/479/33 59/480/33
f 59/480/33 61/481/33 63/64/33
f 63/64/33 3/460/33 7/462/33
f 7/462/33 11/464/33 15/466/33
f 15/466/33 19/145/33 23/467/33
f 23/467/33 27/469/33 31/62/33
f 31/62/33 35/472/33 39/474/33
f 39/474/33 43/476/33 47/63/33
f 47/63/33 51/175/33 55/478/33
f 55/478/33 59/480/33 63/64/33
f 63/64/33 7/462/33 15/466/33
f 15/466/33 23/467/33 31/62/33
f 31/62/33 39/474/33 47/63/33
f 47/63/33 55/478/33 63/64/33
f 63/64/33 15/466/33 31/62/33
f 97/65/33 65/128/33 66/66/33
f 98/67/33 66/66/33 67/68/33
f 99/69/33 67/68/33 68/70/33
f 100/71/33 68/70/33 69/72/33
f 101/73/33 69/72/33 70/74/33
f 102/75/33 70/74/33 71/76/33
f 103/77/33 71/76/33 72/78/33
f 104/79/33 72/78/33 73/80/33
f 105/81/33 73/80/33 74/82/33
f 106/83/33 74/82/33 75/84/33
f 107/85/33 75/84/33 76/86/33
f 108/87/33 76/86/33 77/88/33
f 109/89/33 77/88/33 78/90/33
f 110/91/33 78/90/33 79/92/33
f 111/93/33 79/92/33 80/94/33
f 112/95/33 80/94/33 81/96/33
f 113/97/33 81/96/33 82/98/33
f 114/99/33 82/98/33 83/100/33
f 115/101/33 83/100/33 84/102/33
f 116/103/33 84/102/33 85/104/33
f 117/105/33 85/104/33 86/106/33
f 118/107/33 86/106/33 87/108/33
f 119/109/33 87/108/33 88/110/33
f 120/111/33 88/110/33 89/112/33
f 121/113/33 89/112/33 90/114/33
f 122/115/33 90/114/33 91/116/33
f 123/117/33 91/116/33 92/118/33
f 124/119/33 92/118/33 93/120/33
f 125/121/33 93/120/33 94/122/33
f 126/123/33 94/122/33 95/124/33
f 127/125/33 95/124/33 96/126/33
f 128/127/33 96/126/33 65/128/33
f 3/129/34 1/188/34 97/130/34
f 3/129/35 98/131/35 99/132/35
f 5/133/36 99/132/36 100/134/36
f 7/135/37 100/134/37 101/136/37
f 9/137/130 101/136/130 102/138/130
f 11/139/39 102/138/39 103/140/39
f 13/141/40 103/140/40 104/142/40
f 17/144/41 15/466/41 104/79/41
f 19/145/42 17/144/42 105/81/42
f 19/145/43 106/83/43 107/85/43
f 21/147/44 107/482/44 108/148/44
f 23/149/45 108/148/45 109/150/45
f 25/151/46 109/150/46 110/152/46
f 27/153/47 110/152/47 111/154/47
f 29/155/48 111/154/48 112/156/48
f 33/158/49 31/157/49 112/156/49
f 35/160/50 33/158/50 113/159/50
f 35/160/51 114/161/51 115/162/51
f 37/163/52 115/162/52 116/164/52
f 39/165/53 116/164/53 117/166/53
f 41/167/131 117/166/131 118/168/131
f 43/169/55 118/168/55 119/170/55
f 45/171/56 119/170/56 120/172/56
f 49/174/57 47/63/57 120/111/57
f 51/175/58 49/174/58 121/113/58
f 51/175/59 122/115/59 123/117/59
f 53/177/60 123/483/60 124/178/60
f 55/179/61 124/178/61 125/180/61
f 57/181/62 125/180/62 126/182/62
f 59/183/63 126/182/63 127/184/63
f 61/185/64 127/184/64 128/186/64
f 1/188/65 63/187/65 128/186/65
f 130/189/66 132/192/66 131/190/66
f 132/192/67 134/194/67 133/193/67
f 134/194/68 136/196/68 135/195/68
f 136/196/69 138/198/69 137/197/69
f 138/198/70 140/200/70 139/199/70
f 140/200/71 142/202/71 141/201/71
f 142/202/72 144/204/72 143/203/72
f 144/204/73 146/206/73 145/205/73
f 146/206/74 148/484/74 147/207/74
f 148/208/75 150/211/75 149/209/75
f 150/211/76 152/213/76 151/212/76
f 152/213/77 154/215/77 153/214/77
f 154/215/78 156/217/78 155/216/78
f 156/217/79 158/219/79 157/218/79
f 158/219/80 160/221/80 159/220/80
f 160/221/81 162/223/81 161/222/81
f 162/223/82 164/225/82 163/224/82
f 164/225/83 166/227/83 165/226/83
f 166/227/84 168/229/84 167/228/84
f 168/229/85 170/231/85 169/230/85
f 170/231/86 172/233/86 171/232/86
f 172/233/87 174/235/87 173/234/87
f 174/235/88 176/237/88 175/236/88
f 176/237/89 178/239/89 177/238/89
f 178/239/90 180/485/90 179/240/90
f 180/241/91 182/244/91 181/242/91
f 182/244/92 184/246/92 183/245/92
f 184/246/93 186/248/93 185/247/93
f 186/248/94 188/250/94 187/249/94
f 188/250/95 190/252/95 189/251/95
f 190/252/96 192/254/96 191/253/96
f 192/254/97 130/189/97 129/191/97
f 195/255/66 197/258/66 196/256/66
f 197/258/67 199/260/67 198/259/67
f 199/260/68 201/262/68 200/261/68
f 201/262/69 203/264/69 202/263/69
f 203/264/70 205/266/70 204/265/70
f 205/266/71 207/268/71 206/267/71
f 207/268/72 209/270/72 208/269/72
f 209/270/73 211/272/73 210/271/73
f 211/272/74 213/324/74 212/273/74
f 213/274/75 215/277/75 214/275/75
f 215/277/76 217/279/76 216/278/76
f 217/279/77 219/281/77 218/280/77
f 219/281/78 221/283/78 220/282/78
f 221/283/79 223/285/79 222/284/79
f 223/285/80 225/287/80 224/286/80
f 225/287/81 227/289/81 226/288/81
f 227/289/82 229/291/82 228/290/82
f 229/291/83 231/293/83 230/292/83
f 231/293/84 233/295/84 232/294/84
f 233/295/85 235/297/85 234/296/85
f 235/297/86 237/299/86 236/298/86
f 237/299/87 239/301/87 238/300/87
f 239/301/88 241/303/88 240/302/88
f 241/303/89 243/305/89 242/304/89
f 243/305/90 245/323/90 244/306/90
f 245/307/91 247/310/91 246/308/91
f 247/310/92 249/312/92 248/311/92
f 249/312/93 251/314/93 250/313/93
f 251/314/94 253/316/94 252/315/94
f 253/316/95 255/318/95 254/317/95
f 255/318/96 257/320/96 256/319/96
f 257/320/97 195/255/97 194/257/97
f 132/325/33 196/329/33 198/326/33
f 130/328/33 194/331/33 196/329/33
f 130/328/33 192/333/33 256/330/33
f 190/332/33 254/335/33 256/330/33
f 188/334/33 252/337/33 254/335/33
f 188/334/33 186/339/33 250/336/33
f 184/338/33 248/341/33 250/336/33
f 182/340/33 246/343/33 248/341/33
f 180/342/33 244/345/33 246/343/33
f 178/344/33 242/347/33 244/345/33
f 178/344/33 176/349/33 240/346/33
f 174/348/33 238/351/33 240/346/33
f 172/350/33 236/353/33 238/351/33
f 172/350/33 170/355/33 234/352/33
f 168/354/33 232/357/33 234/352/33
f 166/356/33 230/359/33 232/357/33
f 164/358/33 228/361/33 230/359/33
f 162/360/33 226/363/33 228/361/33
f 162/360/33 160/365/33 224/362/33
f 158/364/33 222/367/33 224/362/33
f 156/366/33 220/369/33 222/367/33
f 156/366/33 154/371/33 218/368/33
f 152/370/33 216/373/33 218/368/33
f 150/372/33 214/375/33 216/373/33
f 148/374/33 212/377/33 214/375/33
f 146/376/33 210/379/33 212/377/33
f 146/376/33 144/381/33 208/378/33
f 142/380/33 206/383/33 208/378/33
f 140/382/33 204/385/33 206/383/33
f 140/382/33 138/387/33 202/384/33
f 136/386/33 200/388/33 202/384/33
f 134/327/33 198/326/33 200/388/33
f 14/389/33 141/393/33 143/390/33
f 12/392/33 139/395/33 141/393/33
f 12/392/33 10/397/33 137/394/33
f 8/396/33 135/399/33 137/394/33
f 8/396/33 6/400/33 133/398/33
f 6/400/33 4/403/33 131/401/33
f 2/402/33 129/405/33 131/401/33
f 2/402/33 64/407/33 191/404/33
f 62/406/33 189/409/33 191/404/33
f 60/408/33 187/411/33 189/409/33
f 60/408/33 58/413/33 185/410/33
f 56/412/33 183/415/33 185/410/33
f 56/412/33 54/416/33 181/414/33
f 54/416/33 52/419/33 179/417/33
f 50/418/33 177/421/33 179/417/33
f 50/418/33 48/423/33 175/420/33
f 46/422/33 173/425/33 175/420/33
f 44/424/33 171/427/33 173/425/33
f 44/424/33 42/429/33 169/426/33
f 40/428/33 167/431/33 169/426/33
f 40/428/33 38/432/33 165/430/33
f 38/432/33 36/435/33 163/433/33
f 34/434/33 161/437/33 163/433/33
f 34/434/33 32/439/33 159/436/33
f 30/438/33 157/441/33 159/436/33
f 28/440/33 155/443/33 157/441/33
f 28/440/33 26/445/33 153/442/33
f 24/444/33 151/447/33 153/442/33
f 24/444/33 22/448/33 149/446/33
f 22/448/33 20/451/33 147/449/33
f 18/450/33 145/452/33 147/449/33
f 18/450/33 16/391/33 143/390/33
